<?xml version="1.0" standalone="no"?>
<!DOCTYPE svg PUBLIC "-//W3C//DTD SVG 20010904//EN"
 "http://www.w3.org/TR/2001/REC-SVG-20010904/DTD/svg10.dtd">
<svg version="1.0" xmlns="http://www.w3.org/2000/svg"
 width="700.000000pt" height="700.000000pt" viewBox="0 0 700.000000 700.000000"
 preserveAspectRatio="xMidYMid meet">
<metadata>
Created by potrace 1.14, written by Peter Selinger 2001-2017
</metadata>
<g transform="translate(0.000000,700.000000) scale(0.100000,-0.100000)"
fill="#000000" stroke="none">
<path d="M5347 6409 c-14 -4 -35 -14 -47 -22 -17 -12 -30 -13 -57 -5 -32 9
-39 7 -75 -23 -39 -31 -41 -31 -73 -16 l-32 15 -57 -64 c-32 -35 -68 -79 -80
-97 -13 -18 -47 -55 -76 -83 -121 -111 -296 -294 -352 -366 -33 -43 -63 -78
-66 -78 -2 0 -10 7 -16 15 -10 13 -16 13 -51 -6 -22 -12 -54 -34 -72 -49 -17
-16 -64 -49 -105 -75 -40 -26 -103 -78 -140 -116 -45 -47 -71 -67 -82 -63 -9
3 -16 10 -16 15 0 5 -9 9 -20 9 -17 0 -19 -5 -15 -29 4 -22 0 -33 -15 -44 -11
-8 -22 -24 -25 -36 -7 -37 -37 -78 -74 -102 -20 -12 -53 -47 -74 -76 -21 -29
-43 -53 -50 -53 -7 0 -24 31 -40 68 -31 78 -64 119 -80 103 -7 -7 0 -28 25
-68 20 -32 43 -73 52 -91 l17 -33 -100 -105 c-84 -86 -102 -111 -107 -144 -7
-40 -27 -69 -38 -52 -3 5 7 36 23 68 38 78 42 92 30 100 -17 10 -47 -26 -80
-95 -49 -103 -49 -104 -29 -149 l19 -41 -52 -67 c-29 -37 -59 -77 -67 -90 -34
-51 -167 -217 -225 -279 -11 -12 -33 -39 -50 -61 -16 -21 -41 -52 -55 -67 -14
-16 -38 -47 -53 -70 -16 -23 -42 -57 -59 -75 -93 -102 -160 -185 -201 -247
-25 -38 -59 -84 -74 -100 -70 -76 -143 -164 -143 -173 0 -16 -109 -120 -133
-128 -44 -13 -140 -99 -373 -333 -135 -136 -183 -198 -169 -221 11 -18 43 -11
72 16 156 144 243 219 228 194 -16 -27 -108 -144 -146 -186 -52 -58 -87 -114
-93 -148 -6 -36 -45 -77 -87 -93 -33 -13 -34 -9 -15 37 4 9 0 24 -8 35 -33 45
-69 -13 -197 -322 -43 -106 -79 -196 -79 -201 0 -12 -101 -254 -148 -353 -45
-96 -90 -226 -96 -279 -3 -19 -5 -37 -5 -39 -1 -2 -7 2 -15 8 -12 10 -16 6
-21 -21 -7 -30 -65 -148 -86 -174 -11 -14 9 -34 27 -27 10 4 8 -12 -7 -68 -11
-40 -22 -76 -25 -81 -3 -4 -7 -17 -9 -27 -12 -64 -112 -316 -150 -380 -67
-111 -103 -190 -109 -238 -3 -24 -24 -110 -46 -192 -22 -82 -40 -154 -40 -160
0 -8 60 -11 196 -11 178 0 198 2 223 19 15 11 40 23 57 27 40 10 63 27 85 63
10 17 40 41 66 55 26 13 100 55 163 93 63 38 155 91 205 118 97 52 250 145
358 219 84 57 111 61 73 12 -31 -41 -32 -52 -7 -59 26 -7 77 24 225 136 94 72
165 115 283 173 87 43 190 97 228 120 77 45 194 157 350 334 55 63 107 121
115 130 8 8 28 31 44 50 15 19 45 53 65 75 46 50 115 142 130 175 l12 25 -20
-22 c-20 -24 -31 -29 -31 -15 0 8 62 92 105 143 28 35 54 40 31 7 -9 -12 -16
-27 -16 -32 0 -14 85 96 149 194 30 47 68 95 83 108 15 13 56 63 90 110 51 72
228 294 247 312 3 3 31 34 61 70 30 36 65 76 76 90 125 147 351 398 441 489
103 103 116 113 143 109 25 -4 35 1 51 21 11 14 44 51 72 81 29 31 104 112
167 180 63 69 117 127 120 130 3 3 32 36 65 75 100 116 176 194 196 200 10 3
20 14 23 23 3 9 29 42 57 72 53 56 70 86 62 107 -9 22 -34 23 -75 2 -57 -29
-44 -9 30 45 46 35 64 54 69 77 3 19 15 35 29 41 13 6 24 17 24 23 0 7 27 38
60 71 64 62 72 83 40 91 -26 7 -25 23 4 81 13 26 39 78 57 115 19 41 46 79 68
96 68 54 150 198 151 267 0 32 60 94 148 153 114 77 128 115 81 220 -26 60
-105 168 -137 189 -15 9 -74 59 -132 111 -58 52 -136 118 -175 147 -93 69
-136 111 -227 219 -42 50 -114 127 -160 172 -85 82 -85 82 -135 81 -28 -1 -62
-5 -76 -9z m31 -71 c19 -19 14 -28 -13 -28 -27 0 -28 1 -19 24 7 19 16 20 32
4z m29 -154 c39 -39 52 -58 44 -63 -9 -6 9 -34 59 -96 39 -49 78 -103 86 -121
9 -18 28 -46 42 -61 l26 -28 6 28 5 27 62 -57 c34 -32 67 -73 74 -90 6 -18 15
-33 20 -33 17 0 37 -57 46 -125 4 -39 8 -187 8 -330 l0 -261 -60 -82 c-33 -45
-83 -115 -111 -155 -36 -50 -58 -73 -75 -75 -45 -5 -199 112 -225 173 -30 67
-224 260 -356 351 -171 119 -210 152 -206 177 2 12 9 21 16 20 26 -6 10 9 -30
26 -24 10 -55 32 -69 47 -47 53 -129 171 -129 187 0 8 39 50 88 94 48 43 133
124 189 180 141 141 261 236 288 229 15 -4 33 7 70 44 28 27 56 49 63 49 7 1
38 -24 69 -55z m-236 7 c-26 -36 -119 -121 -134 -121 -9 0 95 117 132 147 24
20 25 7 2 -26z m843 -359 c19 -22 15 -42 -10 -42 -22 0 -64 46 -64 70 0 19 2
20 28 6 15 -8 35 -23 46 -34z m257 -222 c62 -64 101 -146 92 -193 -3 -14 -17
-38 -31 -52 -28 -28 -134 -95 -150 -95 -29 0 -41 135 -18 192 8 18 16 63 17
98 3 84 9 110 22 110 6 0 37 -27 68 -60z m-296 -47 c22 -47 25 -129 8 -206
-14 -61 -32 -96 -34 -66 0 7 -2 22 -4 32 -13 69 -27 276 -19 288 9 14 29 -6
49 -48z m-1362 -11 c9 -8 17 -22 17 -31 0 -10 -3 -12 -8 -5 -4 6 -17 16 -29
23 -13 6 -23 19 -23 27 0 16 12 12 43 -14z m-53 -192 c71 -56 100 -90 78 -90
-17 0 -198 147 -198 161 0 15 52 -15 120 -71z m-215 32 c6 -4 21 -20 33 -36
26 -34 124 -145 179 -201 32 -34 116 -109 233 -209 14 -12 86 -70 160 -130
131 -105 340 -306 340 -327 0 -12 -83 55 -203 164 -111 100 -111 100 -227 195
-58 48 -125 105 -150 128 -25 23 -58 54 -75 69 -16 14 -64 59 -105 98 -42 40
-103 96 -135 126 -75 68 -88 86 -80 111 7 21 14 24 30 12z m1685 -140 c-17
-56 -42 -112 -50 -112 -8 0 24 128 43 170 l11 25 4 -23 c2 -12 -2 -39 -8 -60z
m-1753 24 c20 -14 100 -85 177 -158 182 -172 234 -220 326 -298 41 -34 95 -81
120 -104 25 -23 58 -52 74 -64 16 -12 52 -43 80 -69 52 -48 123 -111 286 -255
88 -77 107 -111 71 -123 -25 -8 -56 8 -77 41 -9 14 -56 51 -103 84 -47 32
-107 78 -132 102 -25 24 -83 77 -129 118 -162 146 -215 197 -354 336 -183 183
-386 398 -386 408 0 11 10 6 47 -18z m330 -58 c21 -18 43 -37 49 -43 71 -63
232 -230 228 -236 -9 -15 -268 219 -315 284 -27 37 -8 34 38 -5z m-370 -50
c36 -51 70 -93 103 -128 8 -8 48 -53 87 -98 40 -45 96 -103 125 -129 29 -25
78 -70 108 -99 30 -29 75 -68 100 -87 60 -46 224 -221 211 -225 -16 -5 -204
142 -366 288 -108 97 -275 268 -327 335 -64 83 -103 163 -91 188 7 12 10 9 50
-45z m841 -45 c96 -62 252 -209 252 -238 0 -7 9 -16 19 -20 23 -7 36 -35 16
-35 -8 0 -20 8 -27 18 -7 9 -31 30 -53 47 -144 106 -320 300 -207 228z m-911
-131 c67 -64 180 -173 251 -242 136 -133 171 -165 322 -300 151 -135 155 -139
149 -144 -5 -5 -85 48 -99 64 -3 4 -93 78 -200 165 -107 88 -197 162 -200 165
-10 12 -207 167 -256 202 -28 20 -77 60 -108 89 l-57 52 33 34 c17 18 34 33
37 33 4 0 61 -53 128 -118z m18 -190 c116 -88 236 -191 205 -176 -80 40 -188
123 -295 228 -71 70 -66 67 90 -52z m-332 77 c49 -26 385 -329 364 -329 -3 0
-29 14 -57 30 -28 17 -53 30 -56 30 -13 0 -291 170 -306 187 -24 26 -23 42 4
70 25 27 23 26 51 12z m1343 -134 c71 -52 134 -98 139 -103 35 -27 148 -92
169 -98 32 -8 56 -39 49 -65 -3 -10 -7 -19 -10 -19 -27 0 -304 186 -368 247
-73 70 -129 133 -117 133 5 0 68 -43 138 -95z m-1359 -107 c146 -119 844 -809
825 -816 -20 -6 -130 60 -202 123 -74 64 -252 250 -261 271 -4 13 -25 34 -46
48 -21 13 -69 54 -108 91 -129 124 -280 263 -308 285 -15 12 -46 24 -68 27
-22 3 -42 9 -44 14 -7 11 44 69 60 69 8 0 76 -50 152 -112z m478 -213 c93 -62
152 -115 375 -338 147 -145 278 -272 293 -282 15 -9 27 -23 27 -30 0 -13 -46
-55 -60 -55 -3 0 -22 21 -40 48 -47 66 -353 368 -422 417 -59 41 -209 155
-218 164 -3 4 -25 24 -50 46 -124 109 -230 209 -230 216 0 12 196 -100 325
-186z m8 163 c18 -12 58 -43 89 -70 31 -26 61 -48 66 -48 5 0 12 -6 15 -14 3
-7 34 -35 69 -62 159 -121 399 -343 479 -442 56 -70 69 -103 31 -83 -22 12
-144 124 -241 222 -42 41 -98 93 -125 115 -93 74 -438 404 -422 404 4 0 22
-10 39 -22z m-424 -124 c44 -50 50 -64 27 -64 -17 0 -106 99 -106 118 0 21 33
-2 79 -54z m-283 -21 c47 -48 62 -69 51 -71 -20 -4 -82 28 -126 65 -31 27 -33
31 -20 51 8 12 17 22 21 22 4 0 38 -30 74 -67z m859 57 c3 -5 2 -10 -4 -10 -5
0 -13 5 -16 10 -3 6 -2 10 4 10 5 0 13 -4 16 -10z m950 -36 c68 -41 78 -53 63
-71 -24 -30 -45 -16 -132 85 -29 34 -1 28 69 -14z m-810 -47 c11 -6 22 -14 25
-17 3 -3 12 -9 22 -15 68 -41 214 -151 268 -202 32 -30 175 -116 220 -131 38
-14 70 -39 70 -57 0 -11 -40 -51 -68 -69 -9 -5 -48 27 -120 100 -58 59 -125
122 -148 139 -23 18 -81 65 -129 106 -49 41 -124 99 -168 129 -92 63 -115 95
-41 56 27 -15 58 -32 69 -39z m-1355 -40 c-17 -24 -54 -66 -82 -93 l-51 -49
29 41 c45 64 115 144 126 144 5 0 -5 -20 -22 -43z m1996 -158 c11 -18 -22 -8
-61 18 -47 32 -99 82 -140 138 -24 31 -6 20 83 -54 61 -51 115 -97 118 -102z
m-1696 136 c17 -9 30 -18 30 -20 0 -3 -19 -14 -42 -26 -24 -12 -66 -41 -95
-65 -82 -70 -85 -56 -11 51 55 80 68 86 118 60z m200 -50 c14 -19 14 -19 -2
-6 -10 7 -18 18 -18 24 0 6 1 8 3 6 1 -2 9 -13 17 -24z m-96 -27 c9 -12 25
-50 37 -85 30 -92 49 -98 52 -18 l2 48 83 -89 c45 -48 82 -93 82 -100 0 -6 -6
-17 -14 -23 -15 -12 -69 2 -97 25 -8 8 -20 14 -25 14 -9 0 -76 -72 -155 -165
-18 -22 -63 -71 -100 -110 -62 -65 -102 -111 -142 -160 -9 -11 -38 -47 -64
-80 -26 -33 -60 -71 -75 -85 -16 -13 -28 -32 -28 -42 0 -9 -6 -23 -13 -30 -8
-7 -27 -34 -42 -58 -15 -25 -51 -75 -79 -111 -28 -37 -60 -82 -71 -100 -46
-77 -59 -96 -121 -174 -35 -46 -64 -87 -64 -93 0 -12 -89 -110 -277 -302 -83
-85 -170 -175 -193 -200 -47 -52 -127 -179 -145 -230 -11 -30 -17 -35 -41 -33
-32 3 -49 21 -99 110 -20 34 -61 86 -92 115 -31 29 -69 65 -85 80 l-29 27 34
54 c19 29 52 92 75 139 64 138 127 220 181 233 42 11 93 51 228 179 46 44 81
81 78 84 -3 3 -18 -6 -33 -19 -44 -40 -142 -112 -147 -108 -4 4 67 79 394 415
155 159 187 193 291 309 29 33 88 98 129 144 42 46 155 150 251 230 189 158
260 224 260 241 0 16 35 -5 54 -32z m-328 -58 c-14 -22 -30 -40 -35 -40 -5 0
-20 -21 -32 -47 -22 -45 -180 -212 -351 -371 -79 -73 -90 -68 -19 10 26 29 81
91 122 138 40 47 78 90 84 96 5 6 53 58 105 115 113 123 141 151 148 144 3 -2
-7 -23 -22 -45z m1227 -148 c42 -39 143 -146 182 -192 l20 -23 -20 11 c-11 6
-85 77 -165 158 -84 85 -127 134 -102 116 24 -17 62 -48 85 -70z m-663 53 c7
-8 8 -15 2 -15 -5 0 -15 7 -22 15 -7 8 -8 15 -2 15 5 0 15 -7 22 -15z m1590
-86 c0 -16 -42 -74 -107 -147 -33 -37 -74 -83 -91 -102 -24 -28 -33 -32 -43
-23 -8 8 -9 19 -3 32 19 42 214 251 234 251 5 0 10 -5 10 -11z m-1230 -173
c106 -72 134 -106 87 -106 -42 0 -286 186 -287 218 0 17 62 -18 200 -112z
m-171 32 c31 -22 67 -54 79 -70 13 -16 45 -39 70 -53 96 -49 96 -44 18 -119
-48 -46 -82 -70 -110 -77 -32 -8 -62 -32 -131 -103 -50 -51 -120 -128 -155
-172 -35 -43 -67 -81 -70 -84 -10 -10 -117 -137 -177 -210 -34 -41 -70 -84
-80 -95 -11 -11 -57 -66 -104 -123 -122 -150 -149 -182 -301 -361 -76 -89
-138 -164 -138 -167 0 -7 -56 -78 -145 -187 -27 -33 -93 -117 -146 -186 -52
-69 -99 -125 -104 -125 -5 1 -21 23 -35 48 -27 50 -86 118 -135 152 l-29 22
33 63 c46 88 118 179 141 179 11 0 38 -7 60 -16 31 -13 40 -21 40 -40 0 -13 5
-24 10 -24 14 0 39 60 33 76 -3 7 -30 19 -60 25 -30 7 -57 18 -60 26 -3 7 10
32 28 55 77 98 344 434 354 444 5 6 24 28 40 49 17 20 45 54 62 74 18 20 33
39 33 44 0 4 17 24 38 45 20 20 85 95 144 164 59 70 143 165 187 210 43 46 96
103 117 127 22 24 48 54 59 65 11 12 38 44 60 71 54 68 296 315 308 315 6 0
35 -19 66 -42z m706 -183 c56 -38 85 -72 78 -92 -8 -23 -30 -14 -59 25 -15 20
-34 41 -41 45 -7 4 -25 19 -41 32 -44 39 -1 32 63 -10z m390 -25 c6 -10 -111
-140 -127 -140 -21 0 -3 32 48 89 57 62 68 69 79 51z m-2350 -10 c-3 -5 -11
-10 -16 -10 -6 0 -7 5 -4 10 3 6 11 10 16 10 6 0 7 -4 4 -10z m1645 -50 c0 -9
-38 -55 -85 -105 -76 -79 -128 -142 -151 -181 -24 -41 -27 -43 -40 -27 -12 16
-15 16 -24 3 -14 -21 -12 -30 5 -24 37 14 1 -38 -83 -122 -69 -69 -76 -90 -17
-54 23 14 44 20 60 16 19 -5 31 3 69 46 49 56 55 68 31 68 -8 0 -15 5 -15 10
0 6 13 10 28 10 20 0 49 19 107 71 74 66 107 79 71 27 -25 -36 -19 -42 15 -14
42 35 55 33 28 -5 -21 -30 -21 -31 -2 -20 31 16 116 81 130 98 8 10 9 23 3 39
-5 13 -7 37 -4 54 4 16 4 30 0 30 -3 0 -22 -18 -43 -40 -20 -23 -49 -50 -66
-62 -27 -19 -28 -19 -19 -2 6 10 40 48 75 83 l65 63 51 -62 c53 -63 59 -82 39
-124 -10 -23 -15 -25 -48 -20 -42 7 -50 1 -170 -136 -171 -195 -225 -252 -326
-346 -126 -117 -137 -127 -235 -214 -40 -36 -77 -70 -83 -76 -28 -27 -64 -45
-71 -34 -5 8 -13 6 -26 -6 -22 -20 -26 -42 -4 -24 9 7 19 10 23 6 9 -10 -27
-36 -49 -36 -10 0 -43 -23 -73 -51 -31 -28 -56 -47 -56 -41 0 5 7 15 15 22 8
7 15 18 15 25 0 8 4 15 8 17 12 5 53 80 47 86 -8 8 -44 -29 -61 -62 -8 -17
-35 -47 -60 -66 l-44 -35 35 -3 c20 -2 35 -9 35 -16 0 -7 -35 -55 -78 -107
-42 -52 -84 -105 -93 -119 -9 -14 -44 -55 -78 -93 -33 -37 -61 -71 -61 -75 0
-7 -32 -47 -71 -89 -22 -24 -45 -31 -33 -10 21 35 106 155 126 179 44 51 57
67 68 88 20 37 6 31 -45 -20 -57 -55 -65 -65 -118 -138 -51 -69 -75 -82 -96
-53 l-17 22 -33 -33 c-18 -17 -39 -46 -48 -62 -9 -17 -20 -33 -24 -36 -5 -3
-10 -16 -12 -28 -2 -12 -9 -28 -15 -34 -7 -7 -12 -18 -12 -26 0 -8 -6 -12 -14
-9 -14 6 -50 -28 -96 -90 -13 -18 -30 -33 -37 -33 -23 0 -63 31 -63 49 0 15
88 127 177 224 19 21 84 96 144 168 116 138 152 179 184 213 11 12 40 44 64
71 24 28 90 97 145 155 99 103 230 246 317 345 24 28 46 52 49 55 3 3 30 34
60 70 30 36 57 67 60 70 3 3 35 41 70 85 36 44 70 85 75 91 6 7 17 20 25 30
143 175 214 254 228 254 24 0 97 75 83 84 -15 10 -14 63 2 69 15 5 67 -20 67
-33z m-990 26 c0 -3 -4 -8 -10 -11 -5 -3 -10 -1 -10 4 0 6 5 11 10 11 6 0 10
-2 10 -4z m-115 -141 c-62 -82 -85 -104 -61 -59 22 43 107 147 113 140 3 -3
-20 -40 -52 -81z m990 36 c-3 -6 -11 -11 -17 -11 -6 0 -6 6 2 15 14 17 26 13
15 -4z m-1695 -30 c-6 -12 -15 -21 -21 -21 -10 0 -5 13 14 38 15 19 20 7 7
-17z m620 -119 c0 -4 -23 -35 -51 -67 -27 -33 -65 -82 -83 -110 -31 -46 -91
-109 -71 -75 11 19 161 227 178 245 13 16 27 19 27 7z m-680 -30 c0 -14 -66
-73 -73 -65 -4 4 7 22 25 40 31 32 48 41 48 25z m1213 -880 c-26 -31 -58 -68
-69 -82 -63 -74 -125 -143 -190 -213 -41 -43 -97 -107 -126 -143 -29 -36 -80
-94 -113 -128 -33 -34 -85 -95 -116 -136 -31 -41 -85 -102 -120 -135 -35 -32
-69 -71 -75 -85 -15 -35 -73 -100 -89 -100 -7 0 -16 7 -19 16 -4 10 13 36 52
77 80 85 152 172 152 184 0 13 77 133 99 154 9 9 29 32 46 53 16 20 35 36 41
36 12 0 124 115 224 230 107 125 328 342 340 335 7 -4 -7 -28 -37 -63z m-1942
16 c-17 -44 -46 -88 -58 -88 -22 0 -14 31 18 71 34 43 53 51 40 17z m1325 -83
c-53 -80 -264 -320 -274 -310 -9 9 128 182 227 287 55 59 77 70 47 23z m-828
-156 c-82 -106 -135 -165 -141 -159 -7 7 91 141 143 196 67 71 66 51 -2 -37z
m-643 -31 c-4 -13 -17 -39 -29 -58 -22 -34 -49 -100 -41 -100 2 0 14 17 26 38
34 56 81 112 93 112 23 0 85 -61 105 -102 17 -36 20 -58 17 -128 -2 -47 -6
-105 -10 -130 -3 -25 -8 -71 -11 -102 -3 -31 -8 -63 -11 -71 -7 -20 32 -33 50
-17 8 6 17 21 20 33 3 13 24 33 48 47 24 13 51 32 61 41 10 9 36 24 57 34 22
10 42 26 45 36 7 22 32 49 46 49 5 0 9 -8 9 -19 0 -24 -93 -111 -119 -111 -14
0 -19 -5 -15 -15 16 -41 110 -2 159 66 19 27 40 49 46 49 39 0 80 -62 124
-187 23 -64 25 -108 7 -154 -11 -28 -175 -252 -228 -312 -40 -44 -42 -53 -12
-60 28 -8 77 43 177 181 40 56 79 102 87 102 14 0 33 -27 50 -75 21 -59 80
-19 91 63 4 28 15 50 38 72 32 31 33 32 59 15 14 -10 26 -24 26 -31 0 -14 14
-23 42 -28 27 -4 38 -17 29 -34 -14 -28 -3 -44 20 -29 26 16 55 -3 51 -34 -3
-29 -92 -117 -199 -195 -82 -61 -215 -165 -223 -175 -7 -10 -421 -301 -455
-321 -17 -10 -82 -49 -145 -87 -131 -80 -166 -93 -177 -65 -4 11 -26 36 -50
57 -23 21 -83 89 -132 150 -49 62 -121 143 -160 181 -39 38 -72 72 -72 77 -1
5 -2 15 -3 22 -6 46 57 218 160 432 119 249 131 278 137 320 3 22 1 48 -5 58
-7 14 -6 29 6 56 9 20 34 94 56 166 23 72 48 134 57 139 8 4 23 16 33 26 20
20 51 39 63 40 5 0 5 -10 2 -22z m1335 -333 c-7 -9 -15 -13 -18 -10 -3 2 1 11
8 20 7 9 15 13 18 10 3 -2 -1 -11 -8 -20z m40 -101 c0 -8 -5 -12 -10 -9 -6 4
-8 11 -5 16 9 14 15 11 15 -7z m-621 -119 c0 -5 -6 1 -14 15 -8 14 -14 30 -14
35 0 6 6 -1 14 -15 8 -14 14 -29 14 -35z m931 -45 c-18 -23 -35 -39 -38 -36
-5 5 2 16 42 63 34 40 30 16 -4 -27z m-58 -72 c-7 -7 -12 -8 -12 -2 0 14 12
26 19 19 2 -3 -1 -11 -7 -17z m-372 -257 c0 -6 -4 -13 -10 -16 -5 -3 -10 1
-10 9 0 9 5 16 10 16 6 0 10 -4 10 -9z m-1912 -109 c-17 -28 -24 -33 -26 -19
-2 9 7 34 20 55 17 28 24 33 26 19 2 -9 -7 -34 -20 -55z m1859 -44 c-21 -32
-77 -88 -88 -88 -19 0 -7 18 43 68 52 52 73 61 45 20z m-367 -173 c0 -2 -9 -9
-20 -15 -16 -9 -18 -8 -14 5 5 13 34 22 34 10z m-270 -200 c-19 -14 -41 -25
-49 -25 -19 0 49 49 68 50 8 0 0 -11 -19 -25z"/>
<path d="M5685 5800 c3 -5 10 -10 16 -10 5 0 9 5 9 10 0 6 -7 10 -16 10 -8 0
-12 -4 -9 -10z"/>
<path d="M5755 5744 c21 -15 49 -19 41 -5 -3 5 -18 11 -33 14 -26 5 -26 4 -8
-9z"/>
<path d="M5611 5702 c-19 -36 -12 -71 30 -158 22 -47 44 -108 49 -137 13 -86
5 -206 -19 -267 -26 -67 -26 -68 -2 -72 18 -3 15 -11 -29 -88 -57 -99 -65
-134 -34 -138 16 -2 34 11 64 46 23 28 61 60 85 73 60 32 70 55 69 163 0 124
-7 167 -49 304 -40 126 -92 236 -130 272 -23 22 -23 22 -34 2z m186 -501 c-4
-47 -7 -87 -7 -89 0 -2 -5 0 -11 3 -10 7 -11 150 -1 188 5 18 6 18 15 2 5 -10
7 -54 4 -104z"/>
<path d="M4360 3225 c-7 -9 -10 -18 -7 -21 3 -3 10 4 17 15 13 25 8 27 -10 6z"/>
<path d="M4265 3180 c-21 -22 -34 -40 -28 -40 6 0 26 18 43 40 17 22 30 40 28
40 -2 0 -22 -18 -43 -40z"/>
<path d="M4315 3180 c-3 -5 -2 -10 4 -10 5 0 13 5 16 10 3 6 2 10 -4 10 -5 0
-13 -4 -16 -10z"/>
<path d="M4125 3109 c-4 -6 -5 -12 -2 -15 2 -3 7 2 10 11 7 17 1 20 -8 4z"/>
<path d="M4242 3094 c-7 -14 -8 -23 -2 -19 15 9 32 45 22 45 -5 0 -14 -12 -20
-26z"/>
<path d="M4180 3094 c0 -8 5 -12 10 -9 6 3 10 10 10 16 0 5 -4 9 -10 9 -5 0
-10 -7 -10 -16z"/>
<path d="M4105 3013 c-51 -52 -72 -83 -56 -83 5 0 21 14 35 32 14 18 28 30 31
26 3 -3 -9 -25 -28 -49 -54 -72 -53 -77 7 -19 31 30 56 60 56 67 0 8 11 18 24
23 36 13 40 29 11 40 -14 6 -28 10 -30 10 -2 0 -24 -21 -50 -47z"/>
<path d="M3926 2975 c-3 -8 -1 -15 4 -15 6 0 10 7 10 15 0 8 -2 15 -4 15 -2 0
-6 -7 -10 -15z"/>
<path d="M3820 2845 c-7 -9 -11 -17 -9 -20 3 -2 10 5 17 15 14 24 10 26 -8 5z"/>
<path d="M3816 2669 c-41 -48 -33 -72 9 -27 34 37 44 58 26 58 -5 0 -21 -14
-35 -31z"/>
<path d="M3750 2680 c0 -5 6 -10 14 -10 8 0 18 5 21 10 3 6 -3 10 -14 10 -12
0 -21 -4 -21 -10z"/>
<path d="M3630 2665 c-7 -9 -11 -17 -8 -20 8 -8 47 7 52 21 7 19 -28 18 -44
-1z"/>
<path d="M3590 2585 c-21 -25 -1 -31 23 -7 17 18 18 22 5 22 -8 0 -21 -7 -28
-15z"/>
<path d="M3546 2525 c-10 -14 -16 -29 -13 -31 7 -8 39 35 35 47 -2 7 -12 0
-22 -16z"/>
<path d="M3443 2448 c-43 -45 -84 -109 -77 -119 3 -5 -2 -12 -10 -15 -9 -3
-16 -11 -16 -18 0 -13 -88 -106 -100 -106 -8 0 -40 -90 -40 -113 0 -18 41 26
120 128 81 105 116 143 104 110 -11 -27 25 -15 49 18 16 21 18 30 9 39 -20 20
-15 69 7 75 12 3 17 11 14 19 -8 22 -27 17 -60 -18z"/>
<path d="M3420 2275 c-7 -9 -10 -18 -7 -22 8 -7 37 15 37 28 0 14 -16 11 -30
-6z"/>
<path d="M1601 1176 c-16 -19 -11 -29 8 -17 7 5 12 14 9 21 -3 9 -8 7 -17 -4z"/>
<path d="M2337 1183 c-14 -13 -6 -24 15 -21 27 4 36 28 11 28 -11 0 -23 -3
-26 -7z"/>
<path d="M1550 1069 c0 -5 5 -7 10 -4 6 3 10 8 10 11 0 2 -4 4 -10 4 -5 0 -10
-5 -10 -11z"/>
<path d="M977 1073 c-4 -3 -7 -11 -7 -17 0 -6 5 -5 12 2 6 6 9 14 7 17 -3 3
-9 2 -12 -2z"/>
<path d="M927 968 c-13 -24 -42 -75 -64 -113 -40 -72 -61 -120 -69 -165 -3
-14 -12 -32 -20 -41 -8 -8 -14 -22 -14 -31 0 -8 -9 -27 -20 -41 -11 -14 -20
-31 -20 -39 0 -7 -9 -26 -20 -43 -27 -39 -50 -93 -50 -116 0 -17 3 -18 32 -6
27 11 35 23 49 68 26 85 71 200 153 388 75 173 91 223 43 139z"/>
</g>
</svg>
