<svg version="1.1" xmlns="http://www.w3.org/2000/svg" viewBox="0 0 344.7632071087337 242.04622050109327" width="344.7632071087337" height="242.04622050109327">
  <!-- svg-source:excalidraw -->

  <g stroke-linecap="round" transform="translate(13.570030771587312 10.000000000000028) rotate(0 39.86137184504605 40.18544803890792)"><path d="M36.2 0.99 C43.09 -0.02, 52.77 2.13, 59.03 5.18 C65.28 8.24, 70.2 13.04, 73.73 19.31 C77.26 25.58, 80.56 35.57, 80.21 42.81 C79.86 50.04, 75.9 56.98, 71.63 62.73 C67.37 68.48, 61.19 74.53, 54.61 77.32 C48.03 80.11, 39.33 80.78, 32.16 79.45 C24.98 78.12, 16.62 74.24, 11.58 69.35 C6.53 64.46, 3.57 57.34, 1.91 50.11 C0.25 42.88, -0.59 33.05, 1.6 25.96 C3.8 18.87, 8.42 11.74, 15.09 7.58 C21.75 3.42, 36.31 2.18, 41.62 1.01 C46.93 -0.17, 47.1 0.08, 46.95 0.54 M41.76 0.16 C48.75 -0.04, 56.29 3.73, 62.11 7.62 C67.93 11.52, 73.81 16.81, 76.68 23.51 C79.56 30.21, 80.52 40.39, 79.34 47.82 C78.17 55.25, 74.69 62.86, 69.64 68.1 C64.59 73.34, 56 77.41, 49.06 79.24 C42.13 81.08, 34.89 81.28, 28.01 79.09 C21.13 76.91, 12.23 71.82, 7.8 66.13 C3.37 60.44, 2.13 52.39, 1.42 44.96 C0.71 37.53, 0.68 27.93, 3.57 21.55 C6.47 15.17, 12.75 10.07, 18.79 6.67 C24.83 3.28, 35.99 2.34, 39.78 1.18 C43.58 0.01, 41.22 -0.6, 41.53 -0.32" stroke="#343a40" stroke-width="1" fill="none"></path></g><g stroke-linecap="round" transform="translate(237.21370931746821 13.366679031873474) rotate(0 39.86137184504605 40.18544803890792)"><path d="M32.24 1.51 C38.68 -0.78, 46.47 -0.91, 53.16 1.63 C59.86 4.16, 68.08 10.9, 72.4 16.72 C76.71 22.54, 78.63 29.42, 79.05 36.52 C79.47 43.62, 78.27 52.84, 74.9 59.31 C71.54 65.79, 65.32 71.84, 58.88 75.36 C52.44 78.89, 43.28 80.88, 36.25 80.48 C29.22 80.07, 22.44 77.47, 16.7 72.92 C10.96 68.38, 4.49 60.26, 1.81 53.21 C-0.86 46.16, -1.06 37.38, 0.65 30.62 C2.35 23.86, 6.14 17.85, 12.05 12.65 C17.97 7.46, 31.64 1.48, 36.11 -0.55 C40.59 -2.57, 38.93 -0.15, 38.9 0.53 M34.05 1.06 C40.61 -0.65, 50 -0.35, 56.6 2.7 C63.19 5.75, 69.69 12.97, 73.6 19.36 C77.52 25.75, 80.28 33.9, 80.07 41.03 C79.87 48.16, 76.24 56.1, 72.36 62.16 C68.47 68.23, 63.34 74.38, 56.77 77.42 C50.19 80.46, 39.88 81.53, 32.89 80.4 C25.91 79.27, 20.17 75.62, 14.88 70.64 C9.58 65.65, 3.4 57.31, 1.12 50.49 C-1.16 43.66, -0.71 36.27, 1.21 29.68 C3.14 23.09, 7.05 16.02, 12.66 10.95 C18.27 5.88, 31.11 1.09, 34.87 -0.73 C38.63 -2.55, 35.36 -0.72, 35.23 0.02" stroke="#343a40" stroke-width="1" fill="none"></path></g><g stroke-linecap="round"><g transform="translate(31.953769685069233 90.5716810075028) rotate(0 32.51237560447356 9.600127019629696)"><path d="M-0.51 -0.08 C0.64 2.41, 3.58 10.75, 6.67 14.84 C9.76 18.92, 13.49 22.45, 18.03 24.43 C22.57 26.41, 28.12 28.44, 33.89 26.7 C39.67 24.96, 47.56 19.63, 52.7 13.98 C57.83 8.33, 62.57 -3.65, 64.7 -7.19 M1.43 -1.17 C2.53 1, 3.54 8.76, 6.25 13.17 C8.95 17.57, 13.11 23.38, 17.66 25.27 C22.21 27.16, 27.89 26.36, 33.54 24.48 C39.19 22.61, 46.21 19.45, 51.55 14.01 C56.88 8.57, 63.12 -4.39, 65.53 -8.16" stroke="#343a40" stroke-width="1" fill="none"></path></g></g><mask></mask><g stroke-linecap="round"><g transform="translate(90.43421787427985 115.90531645788954) rotate(0 9.00474914172247 -14.446102529936937)"><path d="M0.99 0.87 C3.17 -1.01, 10.14 -6.55, 12.58 -11.32 C15.03 -16.09, 14.86 -24.79, 15.66 -27.76 M0.05 0.28 C2.19 -1.47, 9.04 -5.25, 12.03 -10.26 C15.01 -15.27, 16.96 -26.74, 17.96 -29.76" stroke="#343a40" stroke-width="1" fill="none"></path></g></g><mask></mask><g stroke-linecap="round"><g transform="translate(79.77988520822953 83.94231845973812) rotate(0 -26.75731674054549 51.32269083688874)"><path d="M0.75 -0.91 C1.53 2.45, 3.41 13.17, 5.72 21.01 C8.02 28.86, 13.19 36.05, 14.58 46.18 C15.96 56.32, 14.19 73.81, 14.04 81.83 C13.89 89.84, 15.88 91.47, 13.67 94.27 C11.46 97.08, 5.76 97.14, 0.76 98.68 C-4.24 100.22, -9.25 103.21, -16.31 103.52 C-23.37 103.83, -34.12 101.92, -41.6 100.55 C-49.09 99.18, -56.83 97.05, -61.2 95.3 C-65.58 93.55, -66.87 93.9, -67.84 90.07 C-68.8 86.25, -66.99 78.81, -67.01 72.36 C-67.03 65.9, -69.13 59.59, -67.96 51.33 C-66.79 43.07, -63.21 31.29, -60 22.79 C-56.8 14.3, -50.88 4.03, -48.74 0.37 M-0.32 1.23 C0.73 4.17, 5.42 11.58, 7.83 19.23 C10.24 26.88, 13.15 36.51, 14.13 47.13 C15.11 57.76, 13.44 75.08, 13.7 83.01 C13.96 90.94, 17.64 91.7, 15.7 94.69 C13.77 97.67, 7.28 99.57, 2.07 100.9 C-3.13 102.24, -8.15 102.88, -15.53 102.7 C-22.91 102.51, -34.85 100.68, -42.22 99.8 C-49.6 98.91, -55.54 99.06, -59.78 97.39 C-64.01 95.73, -65.97 94.35, -67.63 89.8 C-69.29 85.26, -69.97 76.66, -69.73 70.13 C-69.5 63.6, -67.85 58.65, -66.22 50.63 C-64.59 42.61, -63.28 30.44, -59.95 22 C-56.63 13.56, -48.51 3.61, -46.26 0" stroke="#343a40" stroke-width="1" fill="none"></path></g></g><mask></mask><g stroke-linecap="round"><g transform="translate(49.47422784701928 56.241053528006915) rotate(0 15.186400871913747 3.7794639290343497)"><path d="M-1.15 0.65 C0.01 1.56, 4.16 3.61, 7.71 4.51 C11.27 5.41, 16.24 6.61, 20.19 6.07 C24.15 5.52, 29.54 2.17, 31.43 1.23 M0.45 -0.05 C1.44 1.08, 3.41 4.43, 7.08 5.68 C10.76 6.94, 18.43 8.01, 22.5 7.46 C26.57 6.9, 30.27 3.53, 31.52 2.35" stroke="#343a40" stroke-width="1" fill="none"></path></g></g><mask></mask><g stroke-linecap="round"><g transform="translate(49.237464898884696 56.95134237241021) rotate(0 16.933108216213043 8.445918978295154)"><path d="M0.61 -0.7 C1.09 0.52, -0.1 5.27, 1.73 7.96 C3.55 10.65, 8.19 14.12, 11.54 15.43 C14.89 16.74, 18.58 16.48, 21.83 15.81 C25.08 15.14, 28.95 14.06, 31.04 11.42 C33.14 8.77, 34.14 1.77, 34.4 -0.07 M-0.53 1.55 C0.4 2.93, 1.99 7.04, 3.85 9.57 C5.71 12.11, 7.6 15.61, 10.62 16.77 C13.64 17.93, 18.8 17.87, 21.98 16.52 C25.16 15.17, 27.94 11.07, 29.71 8.67 C31.47 6.27, 32.07 3.16, 32.56 2.13" stroke="#343a40" stroke-width="1" fill="none"></path></g></g><mask></mask><g stroke-linecap="round"><g transform="translate(282.8737955255614 68.32016697868247) rotate(355.3331416285636 -13.453693990315116 0.9080394977215747)"><path d="M-1.12 0.15 C-2.47 1.39, -4.91 5.72, -7.51 6.79 C-10.11 7.86, -13.92 7.23, -16.72 6.57 C-19.51 5.92, -22.69 5.15, -24.3 2.86 C-25.9 0.57, -25.7 -5.58, -26.34 -7.19 M0.5 -0.82 C-1.09 0.69, -5.61 6.97, -8.62 8.35 C-11.63 9.74, -15.03 8.74, -17.58 7.49 C-20.13 6.24, -22.28 3.28, -23.91 0.83 C-25.55 -1.62, -26.84 -5.74, -27.41 -7.21" stroke="#343a40" stroke-width="1" fill="none"></path></g></g><mask></mask><g transform="translate(284.3959134174946 56.80581539601033) rotate(0 0.00004999999998744897 0.00005000000000165983)" stroke="none"><path fill="#343a40" d="M 1.57,-1.57 Q 1.57,-1.57 1.77,-1.27 1.98,-0.98 2.09,-0.64 2.20,-0.29 2.19,0.05 2.18,0.41 2.05,0.75 1.93,1.09 1.70,1.37 1.48,1.65 1.18,1.84 0.87,2.04 0.52,2.12 0.18,2.21 -0.17,2.18 -0.53,2.15 -0.86,2.01 -1.19,1.87 -1.46,1.63 -1.73,1.39 -1.90,1.07 -2.08,0.76 -2.15,0.41 -2.21,0.05 -2.17,-0.29 -2.12,-0.65 -1.96,-0.97 -1.80,-1.29 -1.54,-1.54 -1.29,-1.80 -0.97,-1.96 -0.65,-2.12 -0.29,-2.17 0.06,-2.21 0.41,-2.15 0.76,-2.08 1.07,-1.90 1.39,-1.73 1.63,-1.46 1.87,-1.19 2.01,-0.86 2.15,-0.53 2.18,-0.17 2.21,0.18 2.12,0.52 2.03,0.87 1.84,1.18 1.65,1.48 1.37,1.70 1.09,1.93 0.75,2.05 0.41,2.18 0.05,2.19 -0.30,2.20 -0.64,2.09 -0.98,1.98 -1.27,1.77 -1.57,1.56 -1.57,1.57 -1.57,1.57 -1.73,1.35 -1.90,1.14 -2.01,0.90 -2.12,0.66 -2.16,0.39 -2.21,0.13 -2.20,-0.13 -2.18,-0.40 -2.10,-0.65 -2.02,-0.91 -1.88,-1.14 -1.74,-1.36 -1.55,-1.55 -1.36,-1.74 -1.14,-1.88 -0.91,-2.02 -0.65,-2.10 -0.40,-2.18 -0.13,-2.20 0.13,-2.21 0.39,-2.16 0.66,-2.12 0.90,-2.01 1.14,-1.90 1.35,-1.73 1.57,-1.57 1.57,-1.57 L 1.57,-1.57 Z"></path></g><g transform="translate(258.3466772268474 50.756466707186775) rotate(0 0.00004999999998744897 0.00005000000000165983)" stroke="none"><path fill="#343a40" d="M 1.57,-1.57 Q 1.57,-1.57 1.77,-1.27 1.98,-0.98 2.09,-0.64 2.20,-0.29 2.19,0.05 2.18,0.41 2.05,0.75 1.93,1.09 1.70,1.37 1.48,1.65 1.18,1.84 0.87,2.04 0.52,2.12 0.18,2.21 -0.17,2.18 -0.53,2.15 -0.86,2.01 -1.19,1.87 -1.46,1.63 -1.73,1.39 -1.90,1.07 -2.08,0.76 -2.15,0.41 -2.21,0.05 -2.17,-0.29 -2.12,-0.65 -1.96,-0.97 -1.80,-1.29 -1.54,-1.54 -1.29,-1.80 -0.97,-1.96 -0.65,-2.12 -0.29,-2.17 0.06,-2.21 0.41,-2.15 0.76,-2.08 1.07,-1.90 1.39,-1.73 1.63,-1.46 1.87,-1.19 2.01,-0.86 2.15,-0.53 2.18,-0.17 2.21,0.18 2.12,0.52 2.03,0.87 1.84,1.18 1.65,1.48 1.37,1.70 1.09,1.93 0.75,2.05 0.41,2.18 0.05,2.19 -0.30,2.20 -0.64,2.09 -0.98,1.98 -1.27,1.77 -1.57,1.56 -1.57,1.57 -1.57,1.57 -1.73,1.35 -1.90,1.14 -2.01,0.90 -2.12,0.66 -2.16,0.39 -2.21,0.13 -2.20,-0.13 -2.18,-0.40 -2.10,-0.65 -2.02,-0.91 -1.88,-1.14 -1.74,-1.36 -1.55,-1.55 -1.36,-1.74 -1.14,-1.88 -0.91,-2.02 -0.65,-2.10 -0.40,-2.18 -0.13,-2.20 0.13,-2.21 0.39,-2.16 0.66,-2.12 0.90,-2.01 1.14,-1.90 1.35,-1.73 1.57,-1.57 1.57,-1.57 L 1.57,-1.57 Z"></path></g><g stroke-linecap="round"><g transform="translate(70.98236015063628 225.11813049015086) rotate(13.495733280795625 5.577103377352728 -0.3183725958584489)"><path d="M0.26 1 C1.82 0.46, 7.59 -3.73, 9.18 -4.01 C10.77 -4.3, 10.31 -1.69, 9.81 -0.72 C9.3 0.24, 7.66 1.24, 6.17 1.79 C4.68 2.34, 2.12 2.66, 0.88 2.56 M-1.06 0.48 C0.43 0.14, 6.44 -2.88, 8.64 -2.89 C10.84 -2.9, 12.6 -0.58, 12.14 0.41 C11.68 1.4, 7.87 2.57, 5.85 3.07 C3.84 3.57, 1.06 3.32, 0.03 3.4" stroke="#343a40" stroke-width="1" fill="none"></path></g></g><mask></mask><g stroke-linecap="round"><g transform="translate(35.58383554912268 225.47060096711607) rotate(25.709953780805996 5.08859238175279 -0.7442976796439211)"><path d="M0.78 -0.78 C1.88 -1.57, 5.47 -3.8, 6.9 -3.69 C8.33 -3.59, 9.19 -1.12, 9.37 -0.14 C9.55 0.84, 9.82 1.98, 7.97 2.19 C6.13 2.39, -0.18 1.16, -1.69 1.07 M-0.27 1.42 C1.17 1.33, 7.06 -1.72, 9.05 -2.34 C11.05 -2.96, 12.35 -2.71, 11.7 -2.31 C11.05 -1.9, 7.13 -0.5, 5.18 0.08 C3.23 0.66, 0.83 1.09, 0 1.18" stroke="#343a40" stroke-width="1" fill="none"></path></g></g><mask></mask><g stroke-linecap="round"><g transform="translate(296.7482934563517 228.55552430087891) rotate(340.86635679409864 -3.7458525969629477 -1.4194515924872633)"><path d="M-1.07 -0.35 C-2.71 -0.73, -7.72 -3.17, -9.1 -3.06 C-10.47 -2.95, -9.54 -0.32, -9.32 0.31 C-9.11 0.95, -9.43 0.54, -7.82 0.75 C-6.21 0.97, -0.93 1.53, 0.33 1.6 M0.57 -1.58 C-0.78 -2.27, -5.27 -5, -6.95 -5 C-8.62 -5, -9.28 -2.68, -9.47 -1.58 C-9.66 -0.49, -10.04 0.98, -8.08 1.58 C-6.11 2.18, 0.88 2.29, 2.34 2.02" stroke="#343a40" stroke-width="1" fill="none"></path></g></g><mask></mask><g stroke-linecap="round"><g transform="translate(260.50154756838117 228.64933229792337) rotate(340.86635679409864 -4.642567326163487 -0.44494056312856856)"><path d="M-1.07 0.34 C-1.93 0.04, -4.6 -1.97, -6.23 -2.13 C-7.85 -2.3, -10.77 -1.3, -10.83 -0.65 C-10.88 -0.01, -8.35 1.37, -6.57 1.75 C-4.8 2.13, -1.5 1.56, -0.17 1.61 M0.57 -0.53 C-0.25 -1.12, -5.06 -3.96, -6.56 -3.81 C-8.06 -3.66, -8.44 -0.73, -8.43 0.39 C-8.43 1.5, -8.17 2.65, -6.5 2.89 C-4.84 3.13, 0.54 2.12, 1.54 1.82" stroke="#343a40" stroke-width="1" fill="none"></path></g></g><mask></mask><g stroke-linecap="round"><g transform="translate(36.800500549814274 185.83288409829606) rotate(0 -1.2525447145843032 19.861851404146222)"><path d="M1.18 0.85 C1.11 3.99, -0.79 12.93, -1.44 19.14 C-2.09 25.35, -2.42 35.02, -2.74 38.12 M0.33 0.25 C0.73 3.52, 1.44 13.87, 0.77 20.4 C0.1 26.94, -2.96 36.43, -3.68 39.47" stroke="#343a40" stroke-width="1" fill="none"></path></g></g><mask></mask><g stroke-linecap="round"><g transform="translate(73.09666722138661 186.9521491498424) rotate(0 -1.7652030887503543 19.324108188129145)"><path d="M-0.96 -0.53 C-1.16 2.3, 0.53 11.39, -0.02 17.81 C-0.57 24.24, -3.83 34.59, -4.27 38.03 M0.74 1.81 C0.25 4.78, -0.71 13.16, -1.14 19.38 C-1.58 25.61, -1.7 35.79, -1.86 39.17" stroke="#343a40" stroke-width="1" fill="none"></path></g></g><mask></mask><g stroke-linecap="round"><g transform="translate(259.5342458075246 190.15004929711745) rotate(0 0.39252018155406176 19.541193194452433)"><path d="M-0.34 0.06 C-0.57 2.65, -2.95 8.58, -2.35 15.01 C-1.76 21.44, 2.44 34.64, 3.23 38.65 M1.68 -0.95 C1.91 1.86, -0.31 9.54, -0.12 16.37 C0.07 23.2, 2.37 36.63, 2.82 40.03" stroke="#343a40" stroke-width="1" fill="none"></path></g></g><mask></mask><g stroke-linecap="round"><g transform="translate(295.190832449642 190.4698393118449) rotate(0 0.9100437221092079 18.188987138689924)"><path d="M-0.91 -0.34 C-0.64 2.84, 0.71 12.76, 1.31 19.15 C1.92 25.53, 2.45 35.02, 2.73 37.94 M0.81 -1.56 C1.01 1.82, 0.54 14.5, 0.72 20.74 C0.9 26.98, 1.46 33.11, 1.89 35.88" stroke="#343a40" stroke-width="1" fill="none"></path></g></g><mask></mask><g stroke-linecap="round"><g transform="translate(115.9631681384493 70.19541797498462) rotate(0 -3.95129544037502 7.990148148571507)"><path d="M0.67 0.12 C0.5 1.89, -0.53 7.69, -1.96 10.32 C-3.38 12.96, -6.89 14.75, -7.87 15.93 M-0.43 -0.87 C-0.7 0.58, -1.63 5.52, -2.98 8.48 C-4.34 11.43, -7.82 15.73, -8.58 16.85" stroke="#343a40" stroke-width="1" fill="none"></path></g></g><mask></mask><g stroke-linecap="round"><g transform="translate(214.09293362634514 67.29324376462162) rotate(0 7.0152504038434245 -1.3859173528037587)"><path d="M-0.14 0.53 C2.36 -0.04, 13.06 -2.9, 15.71 -3.3 M-1.68 -0.24 C0.62 -0.68, 12.03 -1.56, 14.82 -2.16" stroke="#343a40" stroke-width="1" fill="none"></path></g></g><mask></mask><g stroke-linecap="round"><g transform="translate(209.73967231080076 50.06158439059189) rotate(0 7.865002439092848 -1.6162778816237022)"><path d="M0.11 -0.76 C2.97 -1.34, 14.18 -2.56, 17.02 -2.93 M-1.29 1.46 C1.44 0.49, 13.18 -3.61, 16.15 -4.69" stroke="#343a40" stroke-width="1" fill="none"></path></g></g><mask></mask><g stroke-linecap="round"><g transform="translate(209.55828642265294 50.968513831330284) rotate(0 1.6164758273195616 8.889178046541005)"><path d="M0.15 0.7 C0 1.99, -0.74 5.05, -0.81 6.99 C-0.88 8.93, -1.18 10.53, -0.27 12.33 C0.64 14.12, 4.06 16.89, 4.66 17.76 M-1.23 0.02 C-1.53 1.03, -2.18 2.92, -1.61 5.21 C-1.04 7.5, 1.09 12.02, 2.2 13.73 C3.31 15.45, 4.6 14.75, 5.07 15.48" stroke="#343a40" stroke-width="1" fill="none"></path></g></g><mask></mask><g stroke-linecap="round" transform="translate(92.13718121093814 62.46961026364377) rotate(24.443954780416895 2.7852239023800394 9.086201872448669)"><path d="M2.3 -0.32 C2.85 -0.96, 3.56 0.58, 4.06 1.35 C4.56 2.12, 5.15 2.79, 5.28 4.31 C5.42 5.83, 4.9 8.64, 4.87 10.49 C4.84 12.33, 5.35 14, 5.12 15.36 C4.9 16.71, 4.35 18.4, 3.53 18.6 C2.71 18.8, 0.93 17.99, 0.22 16.57 C-0.5 15.16, -0.7 11.98, -0.75 10.09 C-0.8 8.2, -0.67 6.74, -0.06 5.23 C0.54 3.73, 2.52 2.03, 2.88 1.06 C3.25 0.09, 2.3 -0.59, 2.13 -0.58 M1.89 -1.11 C2.58 -1.56, 3.93 0.29, 4.43 1.4 C4.94 2.52, 4.95 3.91, 4.91 5.6 C4.88 7.28, 4.51 9.72, 4.23 11.5 C3.95 13.28, 3.66 15.18, 3.24 16.26 C2.82 17.34, 2.24 17.97, 1.7 17.98 C1.15 18, 0.16 17.8, -0.01 16.36 C-0.19 14.93, 0.48 11.41, 0.66 9.39 C0.83 7.36, 0.97 5.71, 1.05 4.21 C1.12 2.71, 0.67 1.22, 1.1 0.39 C1.53 -0.44, 3.49 -1.09, 3.62 -0.77" stroke="#343a40" stroke-width="1" fill="none"></path></g><g stroke-linecap="round" transform="translate(227.63243965725667 46.32626621850025) rotate(350.46676720997175 2.7852239023800394 9.086201872448669)"><path d="M3.43 0.84 C3.94 1.05, 4.66 1.35, 4.9 2.6 C5.15 3.86, 4.8 6.51, 4.91 8.38 C5.02 10.26, 5.7 12.18, 5.57 13.84 C5.45 15.51, 4.98 17.73, 4.17 18.38 C3.37 19.03, 1.54 18.79, 0.75 17.75 C-0.04 16.71, -0.39 13.88, -0.57 12.11 C-0.75 10.35, -0.71 8.77, -0.33 7.16 C0.06 5.54, 1.24 3.71, 1.72 2.43 C2.2 1.15, 2.31 -0.28, 2.55 -0.53 C2.79 -0.79, 3.06 0.68, 3.15 0.9 M3.32 0.21 C3.88 0.43, 4.12 1.1, 4.3 2.35 C4.48 3.6, 4.43 5.83, 4.4 7.72 C4.37 9.62, 4.37 12.02, 4.11 13.71 C3.86 15.4, 3.4 17.03, 2.87 17.87 C2.33 18.7, 1.23 19.52, 0.9 18.72 C0.58 17.93, 0.96 14.98, 0.9 13.12 C0.83 11.27, 0.64 9.46, 0.49 7.57 C0.35 5.69, -0.63 3.24, 0.01 1.81 C0.66 0.37, 3.94 -0.98, 4.37 -1.03 C4.8 -1.09, 2.78 1.22, 2.58 1.47" stroke="#343a40" stroke-width="1" fill="none"></path></g><g stroke-linecap="round"><g transform="translate(98.73150876442003 62.758596560929874) rotate(0 8.438319834263439 3.322941691429307)"><path d="M0.31 0.53 C3.06 1.65, 12.8 5.87, 15.68 6.88 M-0.99 -0.24 C2.19 0.49, 14.82 3.58, 17.87 4.94" stroke="#343a40" stroke-width="1" fill="none"></path></g></g><mask></mask><g stroke-linecap="round"><g transform="translate(92.74577445554667 80.35302771125501) rotate(0 7.4856801117614395 3.4822026156734722)"><path d="M-1 0.35 C1.61 1.25, 13.36 5.11, 15.98 5.89 M0.67 -0.51 C3.18 0.55, 13.34 6.4, 15.51 7.47" stroke="#343a40" stroke-width="1" fill="none"></path></g></g><mask></mask><g stroke-linecap="round"><g transform="translate(115.41901047400677 79.08332649422121) rotate(0 45.665029903241816 23.65319556899641)"><path d="M0.92 0.09 C2.9 1.26, 6.99 3.17, 10.86 7.38 C14.73 11.59, 21.49 19.63, 24.16 25.35 C26.82 31.08, 26.77 36.87, 26.85 41.74 C26.93 46.62, 26.3 51.16, 24.64 54.6 C22.97 58.03, 20.21 60.79, 16.85 62.36 C13.5 63.93, 7.52 64.48, 4.5 64.03 C1.49 63.58, -0.24 62.47, -1.25 59.66 C-2.26 56.85, -2.01 51.12, -1.53 47.16 C-1.06 43.21, -1.09 39.35, 1.58 35.93 C4.26 32.51, 9.84 28.64, 14.52 26.62 C19.21 24.61, 24.92 24.08, 29.67 23.84 C34.42 23.59, 38.61 23.3, 43.01 25.13 C47.41 26.95, 51.75 32.1, 56.06 34.77 C60.37 37.45, 64.73 40.34, 68.89 41.19 C73.06 42.04, 77.61 41.83, 81.05 39.85 C84.5 37.88, 88.36 33.4, 89.59 29.35 C90.82 25.3, 89.73 19.48, 88.41 15.57 C87.08 11.66, 84.56 9.02, 81.64 5.9 C78.73 2.78, 75.39 -1.47, 70.9 -3.16 C66.42 -4.86, 58.96 -5.23, 54.72 -4.28 C50.48 -3.32, 46.58 -0.3, 45.46 2.57 C44.34 5.43, 46.31 9.95, 48.01 12.92 C49.71 15.89, 52.15 19.59, 55.65 20.4 C59.16 21.2, 65.72 19.62, 69.06 17.75 C72.4 15.88, 73.68 12.67, 75.7 9.16 C77.72 5.66, 79.06 0.95, 81.18 -3.29 C83.3 -7.53, 86.27 -13.64, 88.41 -16.28 C90.55 -18.92, 92.96 -18.79, 94.02 -19.13 M-0.06 -0.91 C1.82 0.36, 5.83 4.45, 9.71 8.5 C13.59 12.55, 20.4 18.18, 23.22 23.37 C26.04 28.57, 26.59 34.48, 26.62 39.67 C26.66 44.86, 25.38 50.38, 23.44 54.51 C21.5 58.65, 18.08 62.56, 14.98 64.48 C11.88 66.41, 7.64 66.87, 4.84 66.06 C2.05 65.25, -0.55 62.46, -1.79 59.6 C-3.03 56.73, -3.19 52.95, -2.58 48.87 C-1.98 44.79, -1.07 38.69, 1.85 35.11 C4.77 31.53, 9.97 29.32, 14.95 27.39 C19.92 25.47, 27 23.54, 31.69 23.54 C36.37 23.55, 39.1 25.59, 43.06 27.44 C47.02 29.29, 51.13 32.48, 55.46 34.65 C59.78 36.82, 64.66 39.43, 69.01 40.45 C73.37 41.48, 77.83 42.57, 81.6 40.79 C85.37 39.02, 90.12 33.94, 91.61 29.79 C93.1 25.65, 91.86 20.36, 90.54 15.92 C89.21 11.47, 86.79 6.57, 83.64 3.12 C80.5 -0.34, 76.64 -3.43, 71.67 -4.79 C66.69 -6.15, 58.21 -6.06, 53.8 -5.04 C49.4 -4.02, 46.11 -2.06, 45.24 1.33 C44.36 4.71, 46.56 12.14, 48.53 15.26 C50.51 18.38, 53.99 19.6, 57.08 20.03 C60.18 20.46, 63.82 19.63, 67.12 17.83 C70.42 16.04, 74.29 12.76, 76.88 9.25 C79.48 5.75, 81.06 1.33, 82.69 -3.18 C84.32 -7.68, 84.73 -15.39, 86.66 -17.78 C88.59 -20.17, 93.15 -17.28, 94.25 -17.52" stroke="#343a40" stroke-width="1" fill="none"></path></g></g><mask></mask><g stroke-linecap="round"><g transform="translate(222.40598486514307 66.75949721459327) rotate(0 11.898219010876119 17.50060730322369)"><path d="M-0.38 -0.79 C-0.55 1.63, -1.15 9.64, -0.09 14.6 C0.96 19.56, 3.2 25.6, 5.94 28.99 C8.67 32.38, 13.1 34.15, 16.31 34.94 C19.53 35.72, 23.96 33.85, 25.23 33.72 M1.61 1.42 C1.18 3.48, -2.34 8.55, -1.22 12.84 C-0.09 17.12, 5.35 23.35, 8.36 27.14 C11.36 30.92, 14.2 34.48, 16.83 35.56 C19.46 36.64, 22.76 33.46, 24.13 33.61" stroke="#343a40" stroke-width="1" fill="none"></path></g></g><mask></mask><g stroke-linecap="round"><g transform="translate(253.53256251752043 86.80312676347265) rotate(0 26.07670509081578 50.88981502486617)"><path d="M-0.33 0.69 C-1.67 4.08, -6.39 13.1, -8.45 19.56 C-10.51 26.01, -11.51 32.38, -12.69 39.42 C-13.88 46.45, -14.87 54.76, -15.56 61.78 C-16.25 68.8, -17.16 75.97, -16.85 81.52 C-16.53 87.07, -16.7 92.07, -13.69 95.09 C-10.69 98.1, -4.55 98.36, 1.19 99.61 C6.92 100.85, 13.91 102.46, 20.74 102.57 C27.57 102.69, 35.68 101.42, 42.17 100.29 C48.66 99.15, 55.57 97.86, 59.69 95.76 C63.81 93.65, 65.35 93.23, 66.87 87.67 C68.39 82.11, 69.61 71.31, 68.81 62.38 C68.02 53.45, 64.52 42.02, 62.09 34.08 C59.67 26.14, 56.78 20.43, 54.25 14.73 C51.71 9.03, 48.07 2.27, 46.89 -0.11 M1.7 0 C0.76 3.13, -3.73 11.21, -6.21 17.92 C-8.69 24.63, -11.73 32.85, -13.19 40.26 C-14.64 47.67, -14.65 55.49, -14.94 62.39 C-15.24 69.28, -14.87 76.3, -14.96 81.62 C-15.04 86.95, -17.74 91.04, -15.45 94.33 C-13.16 97.62, -7.6 100.09, -1.21 101.35 C5.18 102.61, 15.9 101.69, 22.87 101.86 C29.84 102.03, 34.37 103.42, 40.6 102.35 C46.83 101.28, 55.83 97.81, 60.23 95.44 C64.63 93.07, 65.8 93.7, 67.01 88.14 C68.22 82.57, 68.32 71.2, 67.5 62.03 C66.69 52.85, 63.91 41.04, 62.11 33.07 C60.32 25.11, 59.26 19.9, 56.71 14.23 C54.17 8.56, 48.29 1.12, 46.83 -0.97" stroke="#343a40" stroke-width="1" fill="none"></path></g></g><mask></mask><g stroke-linecap="round"><g transform="translate(303.9953474994053 92.46250451845029) rotate(0 14.932687131639796 25.075563991038436)"><path d="M-0.9 0.93 C1.99 2.12, 11.96 4.79, 17.02 7.82 C22.08 10.85, 27.3 15.26, 29.48 19.1 C31.65 22.93, 30.51 26.96, 30.08 30.82 C29.64 34.68, 28.62 39.45, 26.87 42.27 C25.12 45.09, 21.15 46.76, 19.58 47.73 M0.82 0.37 C3.63 1.63, 11.63 5.62, 16.34 8.88 C21.05 12.14, 26.8 16.12, 29.08 19.92 C31.36 23.71, 30.56 27.8, 30.02 31.64 C29.49 35.47, 27.89 39.91, 25.88 42.94 C23.87 45.96, 19.34 48.59, 17.95 49.78" stroke="#343a40" stroke-width="1" fill="none"></path></g></g><mask></mask><g stroke-linecap="round"><g transform="translate(323.45657433253825 142.55353857262344) rotate(0 1.1291486621576041 5.554845245891812)"><path d="M0.51 -0.91 C1.36 0.1, 4.38 5.02, 4.15 7 C3.93 8.99, -0.26 10.14, -0.84 10.99 M-0.68 1.23 C0.15 2.28, 3.78 6.25, 3.58 8.05 C3.37 9.84, -1.54 11.73, -1.91 12.02" stroke="#343a40" stroke-width="1" fill="none"></path></g></g><mask></mask><g stroke-linecap="round"><g transform="translate(214.00457368139348 47.8606028547031) rotate(0 5.946446043223773 -1.611362978541365)"><path d="M0.71 -0.95 C1.3 -1.53, 2.13 -4.27, 4.06 -4.39 C5.99 -4.51, 10.86 -1.83, 12.27 -1.64 M-0.38 1.17 C-0.04 0.83, 0.75 -2.33, 2.81 -3.14 C4.87 -3.95, 10.84 -3.77, 11.99 -3.7" stroke="#343a40" stroke-width="1" fill="none"></path></g></g><mask></mask><g stroke-linecap="round" transform="translate(98.41758839408374 71.04839354753202) rotate(29.13429219722619 2.278856117181931 5.781977986039578)"><path d="M2.23 -0.37 C2.5 -0.13, 3.38 2.08, 3.7 3.24 C4.03 4.41, 4.14 5.5, 4.17 6.63 C4.2 7.77, 4.36 9.22, 3.89 10.06 C3.42 10.91, 1.87 11.77, 1.37 11.72 C0.86 11.67, 1.13 10.73, 0.86 9.74 C0.58 8.75, -0.1 7.07, -0.27 5.8 C-0.43 4.52, -0.37 3.07, -0.15 2.09 C0.08 1.1, 0.53 0.2, 1.1 -0.11 C1.67 -0.43, 2.72 -0.07, 3.27 0.18 C3.83 0.42, 4.39 1.17, 4.42 1.37 M4.32 -0.76 C4.89 -0.28, 3.68 2.9, 3.74 4.06 C3.81 5.22, 4.67 5.11, 4.69 6.22 C4.71 7.33, 4.22 9.62, 3.84 10.73 C3.46 11.84, 2.73 12.92, 2.43 12.89 C2.14 12.86, 2.41 11.53, 2.07 10.55 C1.72 9.57, 0.44 8.06, 0.35 6.98 C0.26 5.91, 1.54 5.05, 1.54 4.1 C1.53 3.15, 0.27 1.96, 0.34 1.27 C0.41 0.57, 1.66 0.11, 1.94 -0.05 C2.21 -0.21, 1.9 0.16, 1.99 0.31" stroke="#343a40" stroke-width="1" fill="none"></path></g><g transform="translate(50.26404305276344 45.810239102542056) rotate(0 0.00004999999998744897 0.00005000000000165983)" stroke="none"><path fill="#343a40" d="M 1.57,-1.57 Q 1.57,-1.57 1.77,-1.27 1.98,-0.98 2.09,-0.64 2.20,-0.29 2.19,0.05 2.18,0.41 2.05,0.75 1.93,1.09 1.70,1.37 1.48,1.65 1.18,1.84 0.87,2.04 0.52,2.12 0.18,2.21 -0.17,2.18 -0.53,2.15 -0.86,2.01 -1.19,1.87 -1.46,1.63 -1.73,1.39 -1.90,1.07 -2.08,0.76 -2.15,0.41 -2.21,0.05 -2.17,-0.29 -2.12,-0.65 -1.96,-0.97 -1.80,-1.29 -1.54,-1.54 -1.29,-1.80 -0.97,-1.96 -0.65,-2.12 -0.29,-2.17 0.06,-2.21 0.41,-2.15 0.76,-2.08 1.07,-1.90 1.39,-1.73 1.63,-1.46 1.87,-1.19 2.01,-0.86 2.15,-0.53 2.18,-0.17 2.21,0.18 2.12,0.52 2.03,0.87 1.84,1.18 1.65,1.48 1.37,1.70 1.09,1.93 0.75,2.05 0.41,2.18 0.05,2.19 -0.30,2.20 -0.64,2.09 -0.98,1.98 -1.27,1.77 -1.57,1.56 -1.57,1.57 -1.57,1.57 -1.73,1.35 -1.90,1.14 -2.01,0.90 -2.12,0.66 -2.16,0.39 -2.21,0.13 -2.20,-0.13 -2.18,-0.40 -2.10,-0.65 -2.02,-0.91 -1.88,-1.14 -1.74,-1.36 -1.55,-1.55 -1.36,-1.74 -1.14,-1.88 -0.91,-2.02 -0.65,-2.10 -0.40,-2.18 -0.13,-2.20 0.13,-2.21 0.39,-2.16 0.66,-2.12 0.90,-2.01 1.14,-1.90 1.35,-1.73 1.57,-1.57 1.57,-1.57 L 1.57,-1.57 Z"></path></g><g transform="translate(79.97390799040738 46.416562876779864) rotate(0 0.00004999999998744897 0.00005000000000165983)" stroke="none"><path fill="#343a40" d="M 1.57,-1.57 Q 1.57,-1.57 1.77,-1.27 1.98,-0.98 2.09,-0.64 2.20,-0.29 2.19,0.05 2.18,0.41 2.05,0.75 1.93,1.09 1.70,1.37 1.48,1.65 1.18,1.84 0.87,2.04 0.52,2.12 0.18,2.21 -0.17,2.18 -0.53,2.15 -0.86,2.01 -1.19,1.87 -1.46,1.63 -1.73,1.39 -1.90,1.07 -2.08,0.76 -2.15,0.41 -2.21,0.05 -2.17,-0.29 -2.12,-0.65 -1.96,-0.97 -1.80,-1.29 -1.54,-1.54 -1.29,-1.80 -0.97,-1.96 -0.65,-2.12 -0.29,-2.17 0.06,-2.21 0.41,-2.15 0.76,-2.08 1.07,-1.90 1.39,-1.73 1.63,-1.46 1.87,-1.19 2.01,-0.86 2.15,-0.53 2.18,-0.17 2.21,0.18 2.12,0.52 2.03,0.87 1.84,1.18 1.65,1.48 1.37,1.70 1.09,1.93 0.75,2.05 0.41,2.18 0.05,2.19 -0.30,2.20 -0.64,2.09 -0.98,1.98 -1.27,1.77 -1.57,1.56 -1.57,1.57 -1.57,1.57 -1.73,1.35 -1.90,1.14 -2.01,0.90 -2.12,0.66 -2.16,0.39 -2.21,0.13 -2.20,-0.13 -2.18,-0.40 -2.10,-0.65 -2.02,-0.91 -1.88,-1.14 -1.74,-1.36 -1.55,-1.55 -1.36,-1.74 -1.14,-1.88 -0.91,-2.02 -0.65,-2.10 -0.40,-2.18 -0.13,-2.20 0.13,-2.21 0.39,-2.16 0.66,-2.12 0.90,-2.01 1.14,-1.90 1.35,-1.73 1.57,-1.57 1.57,-1.57 L 1.57,-1.57 Z"></path></g></svg>