<svg version="1.1" xmlns="http://www.w3.org/2000/svg" viewBox="0 0 543.1187059902006 331.7732374104067" width="1629.3561179706019" height="400.3197122312201">
  <!-- svg-source:excalidraw -->
  
  <defs>
    <style class="style-fonts">
      @font-face {
        font-family: "Virgil";
        src: url("https://excalidraw.com/Virgil.woff2");
      }
      @font-face {
        font-family: "Cascadia";
        src: url("https://excalidraw.com/Cascadia.woff2");
      }
    </style>
    
  </defs>
  <g stroke-linecap="round"><g transform="translate(117.32789219287412 320.07610828727485) rotate(0 149.81679879586216 0.7900426938069529)"><path d="M0.04 0.95 C50.23 1.19, 250.94 1.75, 301.03 1.69 M-1.4 0.4 C48.74 0.28, 250.37 -0.29, 300.62 -0.06" stroke="#1e1e1e" stroke-width="1" fill="none"></path></g></g><mask></mask><g stroke-linecap="round"><g transform="translate(265.3278921928741 279.07610828727485) rotate(0 1.1551425254063474 -134.8318407865241)"><path d="M-1.14 -0.59 C-0.85 -44.49, 0.77 -220.66, 1.25 -264.39 M3.44 -3.37 C3.52 -48.09, 0.12 -225.06, -0.31 -269.08" stroke="#1e1e1e" stroke-width="1" fill="none"></path></g></g><mask></mask><g stroke-linecap="round"><g transform="translate(43.32789219287412 46.07610828727485) rotate(0 110.7447336567007 2.98672902356833)"><path d="M0.81 0.12 C37.69 1.12, 185.04 4.75, 221.72 5.54 M-0.23 -0.86 C36.43 0.35, 183.39 5.77, 220.62 6.84" stroke="#1e1e1e" stroke-width="1" fill="none"></path></g></g><mask></mask><g stroke-linecap="round"><g transform="translate(267.3278921928741 47.07610828727485) rotate(0 126.11920667029915 0.5197879232931939)"><path d="M-0.64 -0.91 C41.42 -0.71, 210.86 0.65, 252.87 0.96 M1.23 1.23 C43.16 1.56, 210.86 1.86, 252.39 1.94" stroke="#1e1e1e" stroke-width="1" fill="none"></path></g></g><mask></mask><g stroke-linecap="round"><g transform="translate(89.68609268229591 49.35551780857452) rotate(0 -35.80020055719001 106.42610364144407)"><path d="M-0.37 0.78 C-12.3 35.84, -60.53 176.37, -72.43 211.46 M1.64 0.15 C-10.35 35.87, -60.95 177.36, -73.24 212.7" stroke="#1e1e1e" stroke-width="1" fill="none"></path></g></g><mask></mask><g stroke-linecap="round"><g transform="translate(164.5799306811153 258.8728211512971) rotate(0 -36.754180197122565 -105.80927807606494)"><path d="M0.47 -0.91 C-11.6 -36.04, -60.69 -175.79, -72.92 -211.17 M-0.74 1.23 C-12.94 -34.19, -61.81 -177.23, -73.98 -212.85" stroke="#1e1e1e" stroke-width="1" fill="none"></path></g></g><mask></mask><g stroke-linecap="round"><g transform="translate(115.32789219287412 321.07610828727485) rotate(0 150.54080755449831 -22.0266960019992)"><path d="M-0.36 0.23 C24.65 -7.03, 100.14 -44.49, 150.44 -44.56 C200.74 -44.63, 276.31 -7.61, 301.44 -0.19 M1.65 -0.69 C26.42 -7.71, 99.41 -43.51, 149.2 -43.31 C198.99 -43.11, 275.07 -6.8, 300.39 0.5" stroke="#1e1e1e" stroke-width="1" fill="none"></path></g></g><mask></mask><g stroke-linecap="round"><g transform="translate(13.966890145394473 261.36928491189855) rotate(0 75.49385790253612 0.06958138843756956)"><path d="M-0.05 1.05 C25.2 1.29, 126.98 0.94, 152.52 0.74 M-1.53 0.56 C23.43 0.51, 125.66 -1.09, 151.35 -0.99" stroke="#1e1e1e" stroke-width="1" fill="none"></path></g></g><mask></mask><g stroke-linecap="round"><g transform="translate(11.668867865316543 262.7782960177584) rotate(0 75.77512865772096 15.41498140862987)"><path d="M-0.14 -0.18 C12.7 4.75, 50.54 30.59, 76.1 30.54 C101.66 30.48, 140.48 4.53, 153.22 -0.49 M-1.67 -1.32 C11.19 3.74, 50.02 31.83, 75.73 32.15 C101.44 32.46, 139.8 5.64, 152.59 0.57" stroke="#1e1e1e" stroke-width="1" fill="none"></path></g></g><mask></mask><g stroke-linecap="round"><g transform="translate(454.8030601122319 51.8587589700428) rotate(0 -36.07832828654114 105.88386403502982)"><path d="M0.26 -0.04 C-11.57 35.48, -59.69 177.51, -71.91 212.87 M-1.07 -1.1 C-12.89 34.08, -60.26 175.33, -72.41 211.08" stroke="#1e1e1e" stroke-width="1" fill="none"></path></g></g><mask></mask><g stroke-linecap="round"><g transform="translate(529.7798126855482 261.60801781832185) rotate(0 -36.66419691501318 -105.8783215525755)"><path d="M0.86 0.62 C-11.36 -34.77, -60.62 -176.87, -73.08 -212.38 M-0.15 -0.1 C-12.58 -35.29, -62.28 -175.73, -74.19 -210.91" stroke="#1e1e1e" stroke-width="1" fill="none"></path></g></g><mask></mask><g stroke-linecap="round"><g transform="translate(379.0000292440906 264.1072454008344) rotate(0 76.90635074816385 0.02563464771955637)"><path d="M-0.31 -0.13 C24.88 -0.26, 126.38 -0.18, 152 -0.16 M1.73 -1.25 C27.2 -1.24, 128.94 0.87, 154.12 1.3" stroke="#1e1e1e" stroke-width="1" fill="none"></path></g></g><mask></mask><g stroke-linecap="round"><g transform="translate(376.699462835622 265.51781641548547) rotate(0 76.43766918757672 15.347185620564602)"><path d="M-1.12 -0.16 C11.48 4.94, 49.5 30.6, 75.35 30.44 C101.21 30.27, 141.23 4.07, 154 -1.15 M0.49 -1.29 C12.99 4.03, 49.02 31.84, 74.55 31.98 C100.09 32.12, 140.86 4.93, 153.7 -0.44" stroke="#1e1e1e" stroke-width="1" fill="none"></path></g></g><mask></mask><g stroke-linecap="round"><g transform="translate(448.1440281847637 250.82849297184737) rotate(0 12.02099219726739 0.23281495661697704)"><path d="M0.66 1.09 C4.65 1.17, 20.51 1.06, 24.49 1.05 M-0.45 0.62 C3.4 0.31, 19.84 -0.4, 23.95 -0.65" stroke="#1e1e1e" stroke-width="1" fill="none"></path></g></g><mask></mask><g stroke-linecap="round"><g transform="translate(471.86865090666623 251.0730767112484) rotate(0 -11.593532632392282 -2.0049320164854123)"><path d="M0.24 0.94 C-3.67 0.54, -19 -2.46, -22.74 -3.37 M-1.09 0.39 C-5.18 -0.24, -19.87 -4.33, -23.43 -4.95" stroke="#1e1e1e" stroke-width="1" fill="none"></path></g></g><mask></mask><g stroke-linecap="round"><g transform="translate(448.6331956635659 246.9151531414305) rotate(0 11.489263400559537 -0.21681145168841454)"><path d="M0.05 0.4 C3.8 0.31, 18.29 -0.68, 22.02 -0.83 M-1.38 -0.44 C2.8 -0.38, 20.54 0.11, 24.36 0.27" stroke="#1e1e1e" stroke-width="1" fill="none"></path></g></g><mask></mask><g stroke-linecap="round"><g transform="translate(471.37948342786405 246.9151531414305) rotate(0 -11.488615789518917 -3.2185850024289095)"><path d="M-0.82 -0.21 C-4.81 -0.74, -19.25 -3.39, -22.89 -4.21 M0.94 -1.36 C-3.31 -2.19, -19.86 -5.77, -23.92 -6.23" stroke="#1e1e1e" stroke-width="1" fill="none"></path></g></g><mask></mask><g stroke-linecap="round"><g transform="translate(448.6331956635659 242.5126458322115) rotate(0 11.632828549805993 -0.7899908745219477)"><path d="M0.5 0.27 C4.22 0.3, 17.91 0.09, 21.59 0.09 M-0.69 -0.63 C3.48 -0.97, 20.17 -1.67, 23.96 -1.86" stroke="#1e1e1e" stroke-width="1" fill="none"></path></g></g><mask></mask><g stroke-linecap="round"><g transform="translate(471.134899688463 242.02347835340942) rotate(0 0.15785109652205165 5.195583683738477)"><path d="M0.01 0.88 C-0.1 2.56, -0.66 8.66, -0.63 10.09 M-1.44 0.3 C-1.15 1.62, 1.59 6.52, 1.76 8.26" stroke="#1e1e1e" stroke-width="1" fill="none"></path></g></g><mask></mask><g stroke-linecap="round"><g transform="translate(448.3886119241649 242.26806209281045) rotate(0 0.32346811958643684 5.232467669524937)"><path d="M-1.05 0.99 C-1.19 2.81, -0.99 8.83, -0.64 10 M0.6 0.47 C0.85 2.05, 1.69 6.98, 1.74 8.37" stroke="#1e1e1e" stroke-width="1" fill="none"></path></g></g><mask></mask><g stroke-linecap="round"><g transform="translate(450.49532884579827 240.751522479271) rotate(0 -4.282514453134013 -35.67459468682429)"><path d="M1.12 -0.21 C0.96 -3.81, 1.6 -16.32, -0.45 -21.91 C-2.49 -27.49, -8.29 -30.05, -11.16 -33.71 C-14.02 -37.37, -16.78 -39.92, -17.66 -43.87 C-18.53 -47.82, -17.6 -53.91, -16.39 -57.43 C-15.18 -60.94, -13.18 -62.91, -10.41 -64.93 C-7.64 -66.96, -2.74 -68.64, 0.23 -69.56 C3.19 -70.48, 6.05 -70.33, 7.38 -70.46 M0.25 -1.37 C-0.08 -4.83, 0.74 -15.81, -1.18 -20.96 C-3.11 -26.11, -8.67 -28.66, -11.32 -32.28 C-13.97 -35.89, -16.56 -38.46, -17.1 -42.64 C-17.65 -46.82, -15.86 -53.45, -14.57 -57.34 C-13.28 -61.24, -11.4 -63.73, -9.35 -65.99 C-7.29 -68.26, -5.35 -70.18, -2.22 -70.91 C0.91 -71.64, 7.39 -70.33, 9.43 -70.38" stroke="#1e1e1e" stroke-width="1" fill="none"></path></g></g><mask></mask><g stroke-linecap="round"><g transform="translate(465.643432312298 240.30914917007163) rotate(0 4.539040225494034 -34.721439808091134)"><path d="M-0.91 -0.7 C-0.92 -4.21, -1.6 -15.11, 0.45 -20.81 C2.5 -26.5, 8.39 -31.07, 11.38 -34.87 C14.36 -38.66, 17.81 -39.98, 18.36 -43.58 C18.91 -47.18, 16.3 -52.76, 14.68 -56.47 C13.07 -60.17, 10.88 -63.79, 8.67 -65.8 C6.47 -67.81, 4.53 -67.69, 1.47 -68.53 C-1.59 -69.38, -7.87 -70.37, -9.68 -70.86 M0.82 1.55 C0.57 -1.78, -2.87 -13.35, -0.71 -19.28 C1.45 -25.22, 10.56 -29.61, 13.79 -34.04 C17.02 -38.47, 18.24 -42.22, 18.67 -45.86 C19.09 -49.5, 17.87 -52.92, 16.34 -55.88 C14.82 -58.85, 11.84 -61.42, 9.52 -63.66 C7.2 -65.9, 5.3 -68.12, 2.44 -69.34 C-0.43 -70.56, -5.95 -70.39, -7.67 -70.99" stroke="#1e1e1e" stroke-width="1" fill="none"></path></g></g><mask></mask><g stroke-linecap="round"><g transform="translate(456.00902090944993 240.32739232052853) rotate(0 -0.4926102396121905 -9.808289194364107)"><path d="M-0.51 0.7 C-1.1 -2.72, -2.13 -16.61, -2.41 -20.32 M1.43 0.02 C1.09 -3.22, -0.09 -15.28, -0.3 -18.76" stroke="#1e1e1e" stroke-width="1" fill="none"></path></g></g><mask></mask><g stroke-linecap="round"><g transform="translate(454.7366304332226 219.96914470089217) rotate(0 3.2867068855411503 -0.04270794033618586)"><path d="M-0.23 0.03 C1.19 -0.16, 6.97 -0.57, 8.38 -0.56 M-1.81 -1 C-0.51 -1.05, 6.05 1.06, 7.6 0.91" stroke="#1e1e1e" stroke-width="1" fill="none"></path></g></g><mask></mask><g stroke-linecap="round"><g transform="translate(461.946843131844 219.54501454214972) rotate(0 -0.24114522580140374 11.450218135730836)"><path d="M-0.77 0.75 C-0.93 4.39, -1.59 17.72, -1.6 21.24 M1.03 0.1 C1.27 4, 0.97 19.51, 0.5 22.8" stroke="#1e1e1e" stroke-width="1" fill="none"></path></g></g><mask></mask><g stroke-linecap="round"><g transform="translate(456.43315106819233 218.2726240659225) rotate(0 -3.353516246303684 -10.664981794436699)"><path d="M0.54 -0.11 C-0.37 -3.47, -5.12 -16.26, -6.03 -19.39 M-0.63 -1.21 C-1.7 -5, -6.46 -17.98, -7.25 -21.22" stroke="#1e1e1e" stroke-width="1" fill="none"></path></g></g><mask></mask><g stroke-linecap="round"><g transform="translate(459.8261923381319 217.0002335896952) rotate(0 1.872999832534731 -10.763437500416074)"><path d="M-0.08 -0.21 C0.75 -3.6, 4.79 -17.83, 5.32 -21.32 M-1.58 -1.36 C-0.85 -4.52, 3.77 -16.96, 4.94 -20.06" stroke="#1e1e1e" stroke-width="1" fill="none"></path></g></g><mask></mask><g transform="translate(444.55750662340455 193.24894470011947) rotate(0 12.935969841643896 2.5447809524545164)" stroke="none"><path fill="#1e1e1e" d="M 1.17,-0.58 Q 1.17,-0.58 1.54,0.14 1.90,0.87 2.36,1.96 2.83,3.04 3.22,3.69 3.62,4.33 3.69,4.47 3.76,4.61 3.80,4.77 3.84,4.92 3.84,5.08 3.84,5.24 3.80,5.39 3.76,5.55 3.69,5.69 3.61,5.83 3.51,5.94 3.40,6.06 3.27,6.15 3.14,6.24 2.99,6.30 2.84,6.35 2.69,6.37 2.53,6.39 2.37,6.37 2.21,6.35 2.07,6.29 1.92,6.24 1.79,6.15 1.66,6.06 1.55,5.94 1.45,5.82 1.78,4.58 2.11,3.34 2.53,2.37 2.96,1.40 3.54,0.67 4.13,-0.05 4.25,-0.15 4.37,-0.25 4.51,-0.32 4.66,-0.39 4.81,-0.42 4.97,-0.45 5.12,-0.45 5.28,-0.44 5.43,-0.40 5.59,-0.36 5.72,-0.28 5.86,-0.20 5.98,-0.09 6.09,0.01 6.18,0.14 6.26,0.27 6.32,0.42 6.37,0.57 6.38,0.73 6.40,0.89 6.37,1.04 6.35,1.20 6.29,1.34 6.23,1.49 6.13,1.62 6.04,1.75 6.86,2.64 7.67,3.53 6.82,4.38 5.97,5.24 6.28,4.16 6.58,3.09 7.04,1.85 7.50,0.61 8.84,-0.00 10.18,-0.62 10.40,0.45 10.62,1.53 10.92,2.77 11.22,4.00 11.34,4.91 11.47,5.81 11.46,5.97 11.45,6.12 11.41,6.28 11.37,6.43 11.29,6.57 11.21,6.70 11.10,6.82 10.99,6.93 10.86,7.02 10.72,7.10 10.57,7.15 10.42,7.20 10.27,7.22 10.11,7.23 9.95,7.21 9.80,7.18 9.65,7.12 9.50,7.06 9.38,6.96 9.25,6.87 9.15,6.75 9.05,6.62 8.98,6.48 8.91,6.34 8.88,6.18 8.85,6.03 9.22,4.71 9.60,3.40 10.06,2.38 10.53,1.36 11.12,0.46 11.70,-0.43 12.10,-0.91 12.50,-1.39 12.65,-1.44 12.80,-1.49 12.96,-1.50 13.12,-1.51 13.28,-1.48 13.43,-1.45 13.58,-1.39 13.72,-1.32 13.85,-1.23 13.97,-1.13 14.07,-1.01 14.17,-0.88 14.23,-0.74 14.30,-0.60 14.33,-0.44 14.36,-0.28 14.35,-0.13 14.34,0.02 14.30,0.17 14.25,0.32 14.17,0.46 14.09,0.60 13.98,0.71 13.87,0.82 13.73,0.90 13.60,0.99 14.58,1.41 15.57,1.83 16.04,0.68 16.52,-0.46 16.52,-0.69 16.51,-0.93 16.58,-1.07 16.65,-1.21 16.74,-1.34 16.84,-1.46 16.97,-1.56 17.09,-1.66 17.24,-1.72 17.38,-1.79 17.54,-1.81 17.69,-1.84 17.85,-1.83 18.01,-1.82 18.16,-1.77 18.31,-1.73 18.45,-1.64 18.58,-1.56 18.69,-1.45 18.80,-1.34 18.89,-1.20 18.97,-1.07 19.01,-0.91 19.06,-0.76 19.07,-0.60 19.08,-0.45 19.05,-0.29 19.02,-0.14 19.28,0.91 19.54,1.96 19.74,3.28 19.93,4.60 19.94,4.83 19.95,5.06 19.95,5.21 19.94,5.37 19.90,5.52 19.86,5.68 19.78,5.81 19.70,5.95 19.59,6.07 19.48,6.18 19.35,6.27 19.22,6.35 19.07,6.41 18.92,6.46 18.76,6.47 18.60,6.48 18.44,6.46 18.29,6.44 18.14,6.38 18.00,6.31 17.87,6.22 17.74,6.13 17.64,6.00 17.54,5.88 17.47,5.74 17.40,5.60 17.37,5.44 17.33,5.29 17.48,3.93 17.62,2.57 18.07,1.22 18.52,-0.12 19.98,-1.04 21.43,-1.96 22.12,-0.93 22.81,0.09 23.23,1.10 23.64,2.11 23.92,3.19 24.19,4.27 24.20,4.71 24.21,5.16 24.19,5.32 24.18,5.48 24.12,5.63 24.07,5.78 23.98,5.91 23.90,6.04 23.78,6.15 23.67,6.26 23.53,6.33 23.39,6.41 23.24,6.45 23.08,6.49 22.93,6.50 22.77,6.50 22.61,6.47 22.46,6.43 22.32,6.36 22.17,6.29 22.05,6.19 21.93,6.09 21.84,5.96 21.75,5.83 21.69,5.68 21.63,5.54 21.60,5.38 21.58,5.22 22.12,3.83 22.66,2.44 23.66,0.31 24.66,-1.80 24.78,-1.97 24.90,-2.15 25.06,-2.28 25.23,-2.42 25.43,-2.49 25.63,-2.56 25.84,-2.56 26.06,-2.57 26.26,-2.50 26.46,-2.44 26.63,-2.31 26.80,-2.19 26.93,-2.01 27.05,-1.84 27.11,-1.64 27.17,-1.43 27.16,-1.22 27.15,-1.01 27.08,-0.81 27.00,-0.61 26.87,-0.45 26.74,-0.28 26.56,-0.17 26.38,-0.06 26.17,-0.01 25.96,0.03 25.75,0.01 25.54,-0.00 25.34,-0.08 25.15,-0.17 24.99,-0.31 24.84,-0.45 24.73,-0.64 24.63,-0.83 24.59,-1.03 24.55,-1.24 24.58,-1.45 24.61,-1.66 24.71,-1.85 24.81,-2.04 24.96,-2.19 25.11,-2.34 25.30,-2.43 25.49,-2.53 25.70,-2.55 25.91,-2.58 26.12,-2.54 26.33,-2.50 26.51,-2.39 26.70,-2.28 26.84,-2.12 26.98,-1.96 27.06,-1.77 27.14,-1.57 27.16,-1.36 27.17,-1.15 27.12,-0.94 27.07,-0.74 27.07,-0.74 27.07,-0.74 26.31,0.69 25.54,2.13 24.87,3.65 24.21,5.16 24.19,5.32 24.18,5.48 24.12,5.63 24.07,5.78 23.99,5.91 23.90,6.04 23.78,6.15 23.67,6.26 23.53,6.33 23.39,6.41 23.24,6.45 23.08,6.49 22.93,6.50 22.77,6.50 22.61,6.47 22.46,6.43 22.32,6.36 22.17,6.29 22.05,6.19 21.93,6.09 21.84,5.96 21.75,5.83 21.69,5.68 21.63,5.54 21.60,5.38 21.58,5.22 21.58,5.01 21.58,4.80 21.33,3.73 21.08,2.65 21.09,1.47 21.10,0.29 20.79,1.35 20.48,2.41 20.21,3.73 19.95,5.06 19.95,5.21 19.94,5.37 19.90,5.52 19.86,5.68 19.78,5.81 19.70,5.95 19.59,6.07 19.48,6.18 19.35,6.27 19.22,6.35 19.07,6.41 18.92,6.46 18.76,6.47 18.60,6.48 18.44,6.46 18.29,6.44 18.14,6.38 18.00,6.31 17.87,6.22 17.74,6.13 17.64,6.00 17.54,5.88 17.47,5.74 17.40,5.60 17.37,5.44 17.33,5.29 17.28,4.64 17.22,3.99 17.06,2.62 16.91,1.25 16.71,0.16 16.51,-0.93 16.58,-1.07 16.65,-1.21 16.74,-1.34 16.84,-1.46 16.97,-1.56 17.09,-1.66 17.24,-1.72 17.38,-1.79 17.54,-1.81 17.69,-1.84 17.85,-1.83 18.01,-1.82 18.16,-1.77 18.31,-1.73 18.45,-1.64 18.58,-1.56 18.69,-1.45 18.80,-1.34 18.89,-1.20 18.97,-1.07 19.01,-0.91 19.06,-0.76 19.07,-0.61 19.08,-0.45 19.05,-0.29 19.02,-0.14 18.75,0.53 18.48,1.21 17.75,2.40 17.02,3.58 16.38,4.53 15.73,5.48 14.63,4.43 13.54,3.39 12.95,2.21 12.37,1.04 12.44,-0.17 12.50,-1.39 12.65,-1.44 12.80,-1.49 12.96,-1.50 13.12,-1.51 13.28,-1.48 13.43,-1.45 13.58,-1.39 13.72,-1.32 13.85,-1.23 13.97,-1.13 14.07,-1.01 14.17,-0.88 14.23,-0.74 14.30,-0.60 14.33,-0.44 14.36,-0.28 14.35,-0.13 14.34,0.02 14.30,0.17 14.25,0.32 14.17,0.46 14.09,0.60 13.98,0.71 13.87,0.82 13.73,0.90 13.60,0.99 13.45,1.14 13.31,1.30 12.84,2.49 12.37,3.67 11.92,4.74 11.47,5.81 11.46,5.97 11.45,6.12 11.41,6.28 11.37,6.43 11.29,6.57 11.21,6.70 11.10,6.82 10.99,6.93 10.86,7.02 10.72,7.10 10.57,7.15 10.42,7.20 10.27,7.22 10.11,7.23 9.95,7.21 9.80,7.18 9.65,7.12 9.50,7.06 9.38,6.96 9.25,6.87 9.15,6.75 9.05,6.62 8.98,6.48 8.91,6.34 8.88,6.18 8.85,6.03 8.78,5.40 8.70,4.77 8.35,3.20 8.00,1.63 8.99,1.21 9.99,0.79 9.61,1.88 9.23,2.97 8.86,4.20 8.48,5.43 7.57,5.98 6.65,6.52 6.00,5.63 5.34,4.74 4.79,3.45 4.24,2.16 4.18,1.05 4.13,-0.05 4.25,-0.15 4.37,-0.25 4.51,-0.32 4.66,-0.39 4.81,-0.42 4.97,-0.45 5.12,-0.45 5.28,-0.44 5.43,-0.40 5.59,-0.36 5.72,-0.28 5.86,-0.20 5.98,-0.09 6.09,0.00 6.18,0.14 6.26,0.27 6.32,0.42 6.37,0.57 6.38,0.73 6.40,0.89 6.37,1.04 6.35,1.20 6.29,1.34 6.23,1.49 6.13,1.62 6.04,1.75 5.72,2.06 5.40,2.38 4.51,3.35 3.62,4.33 3.69,4.47 3.76,4.61 3.80,4.77 3.84,4.92 3.84,5.08 3.84,5.24 3.80,5.39 3.76,5.55 3.69,5.69 3.61,5.83 3.51,5.94 3.40,6.06 3.27,6.15 3.14,6.24 2.99,6.30 2.84,6.35 2.69,6.37 2.53,6.39 2.37,6.37 2.21,6.35 2.07,6.29 1.92,6.24 1.79,6.15 1.66,6.06 1.55,5.94 1.45,5.82 1.09,5.11 0.73,4.40 0.14,3.22 -0.44,2.04 -0.80,1.31 -1.17,0.58 -1.22,0.43 -1.28,0.28 -1.29,0.13 -1.31,-0.02 -1.29,-0.18 -1.26,-0.33 -1.20,-0.48 -1.15,-0.63 -1.05,-0.76 -0.96,-0.89 -0.84,-0.99 -0.72,-1.09 -0.58,-1.16 -0.44,-1.23 -0.28,-1.27 -0.13,-1.30 0.02,-1.30 0.18,-1.30 0.33,-1.25 0.48,-1.21 0.62,-1.14 0.76,-1.06 0.88,-0.95 1.00,-0.85 1.08,-0.71 1.17,-0.58 1.17,-0.58 L 1.17,-0.58 Z"></path></g><g stroke-linecap="round"><g transform="translate(436.9231637660409 215.72784311346794) rotate(0 -3.6151123826403477 5.691195869315635)"><path d="M-0.87 0.05 C-1.92 2.21, -6.1 10.62, -6.88 12.36 M0.87 -0.97 C-0.33 0.91, -6.98 8.66, -8.1 10.71" stroke="#1e1e1e" stroke-width="1" fill="none"></path></g></g><mask></mask><g stroke-linecap="round"><g transform="translate(430.98534154364705 207.66937009736188) rotate(0 -4.858023436040412 2.9298240602593637)"><path d="M-0.56 -0.05 C-2.23 1.02, -8.57 5.91, -10.29 6.98 M1.35 -1.12 C-0.43 -0.49, -8.89 3.52, -11.07 4.96" stroke="#1e1e1e" stroke-width="1" fill="none"></path></g></g><mask></mask><g stroke-linecap="round"><g transform="translate(428.4405605911924 193.67307485886192) rotate(0 -5.466889989450067 0.9549009631516014)"><path d="M-0.31 -0.2 C-2.26 0.49, -9.8 2.71, -11.47 3.26 M1.72 -1.35 C-0.45 -0.89, -10.57 1.3, -12.66 1.74" stroke="#1e1e1e" stroke-width="1" fill="none"></path></g></g><mask></mask><g stroke-linecap="round"><g transform="translate(430.56121138490465 182.22156057281643) rotate(0 -6.055084505448065 -2.7305583260578317)"><path d="M1.14 -1.13 C-1.14 -2, -10.1 -3.83, -12.74 -4.67 M0.27 0.89 C-2.17 -0.36, -11.13 -5.33, -13.25 -6.35" stroke="#1e1e1e" stroke-width="1" fill="none"></path></g></g><mask></mask><g stroke-linecap="round"><g transform="translate(439.043814559753 169.07352565180133) rotate(0 -4.789025177523911 -3.415233020133087)"><path d="M0.43 0.48 C-1.24 -0.7, -7.42 -6.13, -9.15 -7.31 M-0.81 -0.31 C-2.69 -1.28, -8.3 -4.44, -10 -5.83" stroke="#1e1e1e" stroke-width="1" fill="none"></path></g></g><mask></mask><g stroke-linecap="round"><g transform="translate(449.2229383695712 165.6804843818619) rotate(0 -2.884808055806218 -5.751822685815171)"><path d="M-0.32 1.09 C-1.61 -0.83, -6.45 -10.17, -7.48 -12.6 M1.71 0.62 C0.75 -1.03, -3.85 -8.98, -5.36 -11.21" stroke="#1e1e1e" stroke-width="1" fill="none"></path></g></g><mask></mask><g stroke-linecap="round"><g transform="translate(476.42323463680606 215.8823731266914) rotate(0 2.8847663452487495 5.380313730733718)"><path d="M-1 -0.97 C0.06 1.17, 5.51 9.79, 6.77 11.74 M0.68 1.13 C1.58 2.99, 5.16 8.01, 6.03 9.76" stroke="#1e1e1e" stroke-width="1" fill="none"></path></g></g><mask></mask><g stroke-linecap="round"><g transform="translate(482.6459612431608 207.82390011058544) rotate(0 4.979368362583955 3.27651575175301)"><path d="M0.4 0.28 C2.37 1.45, 9.21 4.98, 10.8 6.03 M-0.84 -0.61 C1.07 0.78, 8.35 5.77, 9.96 7.17" stroke="#1e1e1e" stroke-width="1" fill="none"></path></g></g><mask></mask><g stroke-linecap="round"><g transform="translate(484.766188928761 193.8276048720855) rotate(0 5.783683472424286 1.2854901685072662)"><path d="M0.2 -0.76 C1.86 -0.49, 8.64 1.36, 10.36 1.9 M-1.16 1.46 C0.86 1.88, 10.95 3.51, 12.73 3.31" stroke="#1e1e1e" stroke-width="1" fill="none"></path></g></g><mask></mask><g stroke-linecap="round"><g transform="translate(483.44350520829965 182.37609058603988) rotate(0 6.195269477911268 -3.663438448346909)"><path d="M-0.66 -0.23 C1.48 -0.96, 10.76 -4.17, 13.06 -5.16 M1.19 -1.39 C3.11 -2.43, 10.02 -6.46, 11.84 -7.1" stroke="#1e1e1e" stroke-width="1" fill="none"></path></g></g><mask></mask><g stroke-linecap="round"><g transform="translate(474.74754083163333 169.22805566502478) rotate(0 4.170099710371801 -3.777806202715965)"><path d="M-0.52 0.35 C1.07 -0.93, 7.14 -6.47, 8.86 -7.91 M1.41 -0.51 C2.86 -1.63, 6.35 -5.57, 7.66 -6.73" stroke="#1e1e1e" stroke-width="1" fill="none"></path></g></g><mask></mask><g stroke-linecap="round"><g transform="translate(463.4495379085967 165.83501439508547) rotate(0 3.1863524606090436 -5.907434745330136)"><path d="M-0.47 -0.7 C0.75 -2.98, 5.77 -11.63, 6.85 -13.37 M1.48 1.55 C2.64 -0.65, 5.56 -9.99, 6.15 -12.39" stroke="#1e1e1e" stroke-width="1" fill="none"></path></g></g><mask></mask><g transform="translate(58.49741965225502 205.62672859125257) rotate(0 28.869670519171365 18.618384997848693)"><text x="28.86967051917136" y="0" font-family="Virgil, Segoe UI Emoji" font-size="7.447353999139475px" fill="#1e1e1e" text-anchor="middle" style="white-space: pre; font-size: 10px" direction="ltr" dominant-baseline="text-before-edge">0 1 1 1 0 0 1 1</text><text x="28.86967051917136" y="9.309192498924343" font-family="Virgil, Segoe UI Emoji" font-size="7.447353999139475px" fill="#1e1e1e" text-anchor="middle" style="white-space: pre; font-size: 10px" direction="ltr" dominant-baseline="text-before-edge">0 1 1 1 0 1 0 1</text><text x="28.86967051917136" y="18.618384997848686" font-family="Virgil, Segoe UI Emoji" font-size="7.447353999139475px" fill="#1e1e1e" text-anchor="middle" style="white-space: pre; font-size: 10px" direction="ltr" dominant-baseline="text-before-edge">0 1 1 1 0 0 0 0</text><text x="28.86967051917136" y="27.92757749677303" font-family="Virgil, Segoe UI Emoji" font-size="7.447353999139475px" fill="#1e1e1e" text-anchor="middle" style="white-space: pre; font-size: 10px" direction="ltr" dominant-baseline="text-before-edge">0 0 1 1 1 1 1 1</text></g></svg>